<svg width="375" height="235" viewBox="0 0 375 235" fill="none" xmlns="http://www.w3.org/2000/svg">
<path d="M390.172 70.938C336.887 53.3811 279.458 82.3441 261.901 135.629L254.543 157.962L232.209 150.604C178.924 133.047 121.496 162.01 103.939 215.294C86.3821 268.579 115.345 326.007 168.63 343.564L190.964 350.923L183.605 373.257C166.048 426.541 195.011 483.97 248.296 501.527C301.581 519.084 359.009 490.121 376.566 436.836L383.925 414.502L406.258 421.861C459.543 439.418 516.972 410.455 534.528 357.17C552.085 303.886 523.122 246.457 469.837 228.9L447.504 221.542L454.863 199.208C472.42 145.923 443.456 88.495 390.172 70.938Z" fill="#EF404B"/>
<circle cx="13.2466" cy="193.723" r="91.5374" transform="rotate(6.08087 13.2466 193.723)" stroke="#3840ED" stroke-width="2.77672"/>
<path d="M90.6415 203.214L103.181 215.087L117.573 205.73L105.788 218.212L115.221 232.676L102.682 220.803L88.2898 230.16L100.075 217.678L90.6415 203.214Z" fill="white"/>
</svg>
