<svg width="62" height="29" viewBox="0 0 62 29" fill="none" xmlns="http://www.w3.org/2000/svg">
<g clip-path="url(#clip0_6346_73989)">
<path d="M45.3308 10.3834H51.2899L44.2328 19.58H38.2719L45.3308 10.3834ZM44.8829 9.48497L37.3812 19.2646C37.2018 19.4977 37.1724 19.7923 37.3038 20.0528C37.4305 20.3106 37.6991 20.4775 37.9834 20.4775H44.6803L52.2427 10.6236C52.4078 10.4028 52.432 10.1162 52.3143 9.87414C52.1933 9.63298 51.9471 9.48497 51.6695 9.48497H44.8829ZM23.4588 4.70439C23.4972 4.64008 23.5688 4.59705 23.649 4.59705H27.5572L28.1185 1.38257C28.1375 1.2828 28.2253 1.21235 28.3297 1.21235L31.9873 1.20951C32.0542 1.20951 32.1088 1.22984 32.1472 1.27287C32.1871 1.32252 32.207 1.38872 32.1975 1.44736L31.8336 3.52745L49.0288 3.53975C49.1218 3.53975 49.1882 3.59602 49.2209 3.64945C49.2409 3.68917 49.2684 3.77003 49.2119 3.84663L47.6593 5.86667L60.403 5.86336C60.477 5.86336 60.5302 5.9097 60.5511 5.95132C60.5715 5.98111 60.5881 6.04352 60.5492 6.10074L49.9579 19.9152C49.8373 20.0656 49.8426 20.4477 49.9266 20.6113C50.0139 20.7758 50.3161 21.0104 50.5055 21.0104L57.9554 21.0179C58.0418 21.0179 58.0926 21.0624 58.1158 21.0889C58.1562 21.1352 58.1737 21.1972 58.1642 21.2572L57.5977 24.4854C57.5796 24.5833 57.4909 24.6542 57.386 24.6542H29.0424L28.5765 24.6514C28.6111 24.8112 28.6249 24.9772 28.6249 25.1465C28.6249 26.5986 27.4438 27.776 25.9842 27.776C24.5255 27.776 23.3434 26.5986 23.3434 25.1465C23.3434 23.6938 24.5255 22.5178 25.9842 22.5178C26.9802 22.5178 27.8485 23.0678 28.3003 23.8797L39.852 8.79224C40.0376 8.40261 39.945 8.26311 39.8449 8.03378C39.7704 7.86071 39.4919 7.68292 39.1882 7.68575H31.1023L29.0363 19.4391C29.0163 19.5313 28.9276 19.5961 28.8284 19.5961H25.1685C25.0835 19.5961 25.0313 19.5507 25.0066 19.5237C24.9843 19.4972 24.944 19.4391 24.9597 19.3554L27.2037 6.59771L18.0753 24.4249C17.9932 24.5682 17.8414 24.6604 17.6701 24.6604L14.561 24.6755C14.45 24.6755 14.3589 24.5965 14.3489 24.502L13.4915 11.5514L6.74709 24.4282C6.66642 24.57 6.51078 24.6618 6.34375 24.6618L3.19009 24.6599C3.0819 24.6599 2.98984 24.5805 2.98082 24.4783L0.923778 4.8193C0.919033 4.75783 0.940386 4.6973 0.977399 4.65569C1.01583 4.61739 1.07088 4.59658 1.13731 4.59658H5.3762C5.49199 4.59658 5.58926 4.69021 5.58926 4.81362L6.22512 17.6389L12.4594 4.70723C12.4931 4.64008 12.5685 4.59658 12.6478 4.59658L16.5122 4.58003C16.619 4.58003 16.7144 4.66042 16.721 4.75499L17.3493 17.6796L23.4588 4.70439ZM28.1499 0.3125C27.7133 0.3125 27.3422 0.623167 27.2639 1.05441L26.7984 3.69768H23.5114C23.1759 3.69768 22.876 3.87784 22.7052 4.18992L18.0782 14.022L17.6188 4.51667C17.5794 4.05658 17.1884 3.69768 16.721 3.69768H12.5139C12.178 3.69768 11.8681 3.88399 11.7077 4.19182L6.95019 14.0613L6.48041 4.59327C6.48041 4.09866 6.07612 3.69815 5.58072 3.69815H0.901001C0.645235 3.69815 0.407974 3.79745 0.236198 3.97761C0.0701157 4.15919 -0.015298 4.41217 0.00225924 4.67649L2.10011 24.7545C2.15041 25.2089 2.53572 25.5517 2.99601 25.5517L6.47472 25.5531C6.90179 25.5531 7.29042 25.3209 7.49162 24.9436L12.8043 14.8037L13.4592 24.7545C13.5119 25.2089 13.8957 25.5517 14.3532 25.5517L17.8063 25.5531C18.2314 25.5531 18.6239 25.3181 18.8246 24.9389L25.2809 12.3278L24.0306 19.44C23.9831 19.702 24.0567 19.9687 24.2261 20.1753C24.3964 20.3772 24.6489 20.4945 24.9151 20.4945H29.0073C29.4325 20.4945 29.7941 20.1994 29.889 19.7748L31.8578 8.58182H38.8878L28.2642 22.4342C27.6284 21.9046 26.8241 21.6156 25.9917 21.6156C24.0381 21.6156 22.4433 23.2016 22.4433 25.1493C22.4433 27.0984 24.0381 28.6839 25.9917 28.6839C27.7869 28.6839 29.3148 27.3178 29.5212 25.5526L57.5678 25.5512C58.0095 25.5512 58.3806 25.2387 58.4527 24.8084L59.0948 21.1707C59.1394 20.9092 59.0649 20.6411 58.8955 20.4401C58.7265 20.2392 58.4755 20.1238 58.2074 20.1238L50.934 20.1172L61.5385 6.29225C61.7189 6.02414 61.735 5.7007 61.586 5.42266C61.4403 5.14131 61.1485 4.96494 60.8296 4.96494H49.4815L50.2008 4.02915C50.3897 3.74828 50.4082 3.4064 50.2492 3.10756C50.0907 2.81438 49.7866 2.62808 49.4563 2.62808H32.9041L33.1309 1.35988C33.1736 1.10028 33.0948 0.825077 32.9216 0.621748C32.7532 0.422203 32.5112 0.3125 32.2402 0.3125H28.1499Z" fill="url(#paint0_linear_6346_73989)"/>
</g>
<defs>
<linearGradient id="paint0_linear_6346_73989" x1="30.8434" y1="28.6839" x2="30.8434" y2="0.3125" gradientUnits="userSpaceOnUse">
<stop stop-color="#161998"/>
<stop offset="0.129" stop-color="#441E93"/>
<stop offset="0.266" stop-color="#6E228F"/>
<stop offset="0.407" stop-color="#90258C"/>
<stop offset="0.549" stop-color="#AB2889"/>
<stop offset="0.694" stop-color="#BE2A87"/>
<stop offset="0.842" stop-color="#C92B86"/>
<stop offset="1" stop-color="#CD2B86"/>
</linearGradient>
<clipPath id="clip0_6346_73989">
<rect width="62" height="29" fill="white"/>
</clipPath>
</defs>
</svg>
