<svg width="768" height="563" viewBox="0 0 768 563" fill="none" xmlns="http://www.w3.org/2000/svg">
<path d="M654.859 353.619C574.021 326.984 486.897 370.923 460.262 451.761L449.098 485.642L415.216 474.479C334.379 447.843 247.255 491.783 220.619 572.62C193.984 653.457 237.924 740.581 318.761 767.217L352.643 778.381L341.479 812.262C314.844 893.1 358.783 980.224 439.621 1006.86C520.459 1033.49 607.583 989.555 634.218 908.718L645.382 874.836L679.264 886C760.101 912.635 847.225 868.696 873.861 787.858C900.496 707.021 856.556 619.897 775.719 593.261L741.837 582.098L753.001 548.216C779.636 467.378 735.697 380.254 654.859 353.619Z" fill="#EF404B"/>
<circle cx="93.6506" cy="514.109" r="138.87" transform="rotate(6.08087 93.6506 514.109)" stroke="#3840ED" stroke-width="4.21252"/>
<path d="M217.077 526.245L231.701 540.093L248.487 529.179L234.742 543.737L245.744 560.607L231.119 546.759L214.334 557.673L228.079 543.115L217.077 526.245Z" fill="white"/>
</svg>
