<svg width="1247" height="1479" viewBox="0 0 1247 1479" fill="none" xmlns="http://www.w3.org/2000/svg">
<path d="M1153.78 248.794C1029.97 192.064 883.622 246.437 826.892 370.241L803.114 422.131L751.224 398.353C627.42 341.623 481.069 395.997 424.339 519.8C367.608 643.604 421.982 789.955 545.786 846.685L597.676 870.463L573.899 922.353C517.169 1046.16 571.542 1192.51 695.346 1249.24C819.15 1305.97 965.501 1251.59 1022.23 1127.79L1046.01 1075.9L1097.9 1099.68C1221.7 1156.41 1368.05 1102.04 1424.78 978.232C1481.51 854.429 1427.14 708.077 1303.34 651.347L1251.45 627.569L1275.22 575.679C1331.95 451.876 1277.58 305.524 1153.78 248.794Z" fill="#EF404B"/>
<circle cx="426.585" cy="110.585" r="308.526" transform="rotate(30 426.585 110.585)" stroke="#3840ED" stroke-width="7.51188"/>
<path d="M549.483 291.258L560.372 383.591L652.145 394.546L560.372 405.502L549.483 497.834L538.594 405.502L446.821 394.546L538.594 383.591L549.483 291.258Z" fill="white"/>
</svg>
