<svg width="18" height="18" viewBox="0 0 18 18" fill="none" xmlns="http://www.w3.org/2000/svg">
<path d="M0.664062 5.875H4.39115V17.3333H0.664062V5.875ZM14.5432 6.00938C14.5036 5.99688 14.4661 5.98333 14.4245 5.97187C14.3745 5.96055 14.3241 5.95083 14.2734 5.94271C14.0534 5.89771 13.8293 5.87503 13.6047 5.875C11.4318 5.875 10.0536 7.45521 9.59948 8.06563V5.875H5.8724V17.3333H9.59948V11.0833C9.59948 11.0833 12.4161 7.16042 13.6047 10.0417V17.3333H17.3307V9.60104C17.3292 8.77827 17.0547 7.97926 16.5502 7.32928C16.0458 6.67929 15.3399 6.21507 14.5432 6.00938Z" fill="#111F2D"/>
<path d="M2.48698 4.31771C3.49375 4.31771 4.3099 3.50156 4.3099 2.49479C4.3099 1.48802 3.49375 0.671875 2.48698 0.671875C1.48021 0.671875 0.664062 1.48802 0.664062 2.49479C0.664062 3.50156 1.48021 4.31771 2.48698 4.31771Z" fill="#111F2D"/>
</svg>
