<svg width="378" height="378" viewBox="0 0 378 378" fill="none" xmlns="http://www.w3.org/2000/svg">
<path d="M30.0356 29.8311C-9.32524 69.1919 -9.32523 133.008 30.0356 172.369L46.5331 188.867L30.0356 205.364C-9.32522 244.725 -9.32521 308.541 30.0356 347.902C69.3964 387.263 133.213 387.263 172.574 347.902L189.071 331.405L205.569 347.902C244.93 387.263 308.746 387.263 348.107 347.902C387.468 308.541 387.468 244.725 348.107 205.364L331.609 188.867L348.107 172.369C387.468 133.008 387.468 69.1918 348.107 29.831C308.746 -9.5298 244.929 -9.52979 205.569 29.831L189.071 46.3285L172.574 29.8311C133.213 -9.52975 69.3964 -9.52976 30.0356 29.8311Z" fill="white"/>
</svg>
