<svg width="211" height="42" viewBox="0 0 211 42" fill="none" xmlns="http://www.w3.org/2000/svg">
<path d="M21.1607 3.45529C11.5462 3.45529 3.78184 11.3268 3.78184 20.9995C3.78184 30.7055 11.5462 38.5437 21.1607 38.5437C30.7422 38.5437 38.5396 30.7055 38.5396 20.9995C38.5396 11.3268 30.7422 3.45529 21.1607 3.45529ZM0.742188 20.9995C0.742188 9.62578 9.89418 0.386719 21.1607 0.386719C32.4273 0.386719 41.5793 9.62578 41.5793 20.9995C41.5793 32.3732 32.4273 41.6123 21.1607 41.6123C9.89418 41.6123 0.742188 32.3732 0.742188 20.9995ZM7.7466 15.0625C9.9933 9.85925 15.1805 6.22367 21.1607 6.22367C24.2995 6.22367 27.1739 7.22429 29.5858 8.89199C33.3524 11.5603 35.7973 15.963 35.7973 20.9661C35.7973 23.5678 35.1365 26.0026 33.9471 28.1372C30.0154 28.5041 26.2158 26.9699 24.2995 24.8352C29.3215 21.3664 30.7092 15.0625 29.718 8.99205C23.7378 10.593 18.3854 14.5288 17.4603 21.0662C15.2797 17.8642 11.7774 15.5628 7.7466 15.0625ZM27.3061 12.7611C27.6035 17.8642 24.696 21.9 20.2687 24.1014C22.8457 28.3374 26.9757 30.7389 31.9647 30.939C29.2885 33.8741 25.4228 35.742 21.1607 35.742C20.7312 35.742 20.3347 35.7086 19.9383 35.6753V23.9346C19.9383 19.1317 22.5484 14.5955 27.3061 12.7611ZM17.1299 35.2083C11.0175 33.4405 6.52413 27.737 6.52413 20.9995C6.52413 19.8988 6.65629 18.7981 6.88757 17.7975H6.95365C12.6695 18.3312 17.1629 23.0341 17.1629 29.1712V35.2083H17.1299Z" fill="#86983F"/>
<path fill-rule="evenodd" clip-rule="evenodd" d="M210.87 27.0502H210.473H207.566L204.724 21.2466H201.288V27.0502H198.348V12.5078H206.211C208.59 12.5078 210.539 14.4757 210.539 16.8772C210.539 18.745 209.383 20.346 207.731 20.9797L210.87 27.0502ZM201.321 15.0427V18.9118H205.682C206.74 18.9118 207.599 18.0446 207.599 16.9772C207.599 15.9099 206.74 15.0427 205.682 15.0427H201.321Z" fill="#66513F"/>
<path fill-rule="evenodd" clip-rule="evenodd" d="M210.87 27.0502H210.473H207.566L204.724 21.2466H201.288V27.0502H198.348V12.5078H206.211C208.59 12.5078 210.539 14.4757 210.539 16.8772C210.539 18.745 209.383 20.346 207.731 20.9797L210.87 27.0502ZM201.321 15.0427V18.9118H205.682C206.74 18.9118 207.599 18.0446 207.599 16.9772C207.599 15.9099 206.74 15.0427 205.682 15.0427H201.321Z" fill="#66513F"/>
<path fill-rule="evenodd" clip-rule="evenodd" d="M149.812 19.8138C149.812 15.5445 153.216 12.1758 157.511 12.1758C160.848 12.1758 163.623 14.177 164.713 17.0455L164.846 17.4124H161.608C160.716 15.8781 159.229 14.9108 157.511 14.9108C154.901 14.9108 152.786 17.1122 152.786 19.8138C152.786 22.5155 154.901 24.7502 157.511 24.7502C159.229 24.7502 160.716 23.8163 161.608 22.2487H164.846L164.713 22.6156C163.623 25.484 160.848 27.4853 157.511 27.4853C153.216 27.3852 149.812 24.1165 149.812 19.8138Z" fill="#66513F"/>
<path fill-rule="evenodd" clip-rule="evenodd" d="M149.812 19.8138C149.812 15.5445 153.216 12.1758 157.511 12.1758C160.848 12.1758 163.623 14.177 164.713 17.0455L164.846 17.4124H161.608C160.716 15.8781 159.229 14.9108 157.511 14.9108C154.901 14.9108 152.786 17.1122 152.786 19.8138C152.786 22.5155 154.901 24.7502 157.511 24.7502C159.229 24.7502 160.716 23.8163 161.608 22.2487H164.846L164.713 22.6156C163.623 25.484 160.848 27.4853 157.511 27.4853C153.216 27.3852 149.812 24.1165 149.812 19.8138Z" fill="#66513F"/>
<path fill-rule="evenodd" clip-rule="evenodd" d="M56.0453 27.0502V21.4467L50.5938 12.5078H53.9968L57.5651 18.7784L61.0673 12.5078H64.3713L58.9528 21.48V27.0502H56.0453Z" fill="#66513F"/>
<path fill-rule="evenodd" clip-rule="evenodd" d="M56.0453 27.0502V21.4467L50.5938 12.5078H53.9968L57.5651 18.7784L61.0673 12.5078H64.3713L58.9528 21.48V27.0502H56.0453Z" fill="#66513F"/>
<path fill-rule="evenodd" clip-rule="evenodd" d="M68.3359 12.5078L71.9372 23.2812L75.5385 12.5078H78.6773L73.457 27.0502H70.3183L65.1641 12.5078H68.3359Z" fill="#66513F"/>
<path fill-rule="evenodd" clip-rule="evenodd" d="M68.3359 12.5078L71.9372 23.2812L75.5385 12.5078H78.6773L73.457 27.0502H70.3183L65.1641 12.5078H68.3359Z" fill="#66513F"/>
<path fill-rule="evenodd" clip-rule="evenodd" d="M98.1378 16.3452C98.1378 17.2457 98.303 17.5126 101.475 18.2464C103.325 18.68 104.217 18.9802 104.977 19.4805C106.1 20.281 106.695 21.3483 106.695 22.7158C106.695 25.651 104.415 27.352 100.88 27.352C97.3118 27.352 95.0321 25.5843 94.8008 22.5157H97.7083C97.9726 24.1167 99.0299 24.8838 101.045 24.8838C102.829 24.8838 103.788 24.0833 103.788 22.9159C103.788 22.2822 103.523 21.882 102.763 21.4817C102.466 21.3816 102.036 21.2149 101.541 21.0815L101.012 20.948L100.715 20.8813C98.8316 20.381 97.4109 19.9141 96.7832 19.4805C95.792 18.8134 95.2633 17.7794 95.2633 16.512C95.2633 13.8103 97.444 12.1426 100.682 12.1426C103.854 12.1426 105.836 13.6769 106.1 16.4452H103.226C102.929 15.1444 102.07 14.5774 100.55 14.5774C98.9638 14.6108 98.1378 15.3112 98.1378 16.3452Z" fill="#66513F"/>
<path fill-rule="evenodd" clip-rule="evenodd" d="M98.1378 16.3452C98.1378 17.2457 98.303 17.5126 101.475 18.2464C103.325 18.68 104.217 18.9802 104.977 19.4805C106.1 20.281 106.695 21.3483 106.695 22.7158C106.695 25.651 104.415 27.352 100.88 27.352C97.3118 27.352 95.0321 25.5843 94.8008 22.5157H97.7083C97.9726 24.1167 99.0299 24.8838 101.045 24.8838C102.829 24.8838 103.788 24.0833 103.788 22.9159C103.788 22.2822 103.523 21.882 102.763 21.4817C102.466 21.3816 102.036 21.2149 101.541 21.0815L101.012 20.948L100.715 20.8813C98.8316 20.381 97.4109 19.9141 96.7832 19.4805C95.792 18.8134 95.2633 17.7794 95.2633 16.512C95.2633 13.8103 97.444 12.1426 100.682 12.1426C103.854 12.1426 105.836 13.6769 106.1 16.4452H103.226C102.929 15.1444 102.07 14.5774 100.55 14.5774C98.9638 14.6108 98.1378 15.3112 98.1378 16.3452Z" fill="#66513F"/>
<path fill-rule="evenodd" clip-rule="evenodd" d="M176.609 21.2799H170.761V27.0502H167.82V12.5078H170.761V18.6449H176.609V12.5078H179.549V27.0502H176.609V21.2799Z" fill="#66513F"/>
<path fill-rule="evenodd" clip-rule="evenodd" d="M176.609 21.2799H170.761V27.0502H167.82V12.5078H170.761V18.6449H176.609V12.5078H179.549V27.0502H176.609V21.2799Z" fill="#66513F"/>
<path fill-rule="evenodd" clip-rule="evenodd" d="M187.079 18.745H192.531V21.2799H187.079V24.4486H194.679V27.0502H184.172V12.5078H194.679V15.1094H187.079V18.745Z" fill="#66513F"/>
<path fill-rule="evenodd" clip-rule="evenodd" d="M187.079 18.745H192.531V21.2799H187.079V24.4486H194.679V27.0502H184.172V12.5078H194.679V15.1094H187.079V18.745Z" fill="#66513F"/>
<path fill-rule="evenodd" clip-rule="evenodd" d="M147.234 19.7786C147.234 24.0479 143.831 27.4167 139.536 27.4167C135.175 27.4167 131.805 24.1147 131.805 19.8453C131.805 15.576 135.208 12.2073 139.536 12.2073C143.864 12.1739 147.234 15.5093 147.234 19.7786ZM134.811 19.7786C134.811 22.5137 136.926 24.715 139.536 24.715C142.113 24.715 144.228 22.5137 144.228 19.7786C144.228 17.077 142.113 14.8756 139.536 14.8756C136.926 14.8756 134.811 17.077 134.811 19.7786Z" fill="#66513F"/>
<path fill-rule="evenodd" clip-rule="evenodd" d="M147.234 19.7786C147.234 24.0479 143.831 27.4167 139.536 27.4167C135.175 27.4167 131.805 24.1147 131.805 19.8453C131.805 15.576 135.208 12.2073 139.536 12.2073C143.864 12.1739 147.234 15.5093 147.234 19.7786ZM134.811 19.7786C134.811 22.5137 136.926 24.715 139.536 24.715C142.113 24.715 144.228 22.5137 144.228 19.7786C144.228 17.077 142.113 14.8756 139.536 14.8756C136.926 14.8756 134.811 17.077 134.811 19.7786Z" fill="#66513F"/>
<path fill-rule="evenodd" clip-rule="evenodd" d="M129.659 27.0502H129.262H126.355L123.513 21.2466H120.077V27.0502H117.137V12.5078H125C127.412 12.5078 129.328 14.4757 129.328 16.8772C129.328 18.745 128.172 20.346 126.52 20.9797L129.659 27.0502ZM120.11 15.0427V18.9118H124.472C125.529 18.9118 126.388 18.0446 126.388 16.9772C126.388 15.9099 125.529 15.0427 124.472 15.0427H120.11Z" fill="#66513F"/>
<path fill-rule="evenodd" clip-rule="evenodd" d="M129.659 27.0502H129.262H126.355L123.513 21.2466H120.077V27.0502H117.137V12.5078H125C127.412 12.5078 129.328 14.4757 129.328 16.8772C129.328 18.745 128.172 20.346 126.52 20.9797L129.659 27.0502ZM120.11 15.0427V18.9118H124.472C125.529 18.9118 126.388 18.0446 126.388 16.9772C126.388 15.9099 125.529 15.0427 124.472 15.0427H120.11Z" fill="#66513F"/>
<path fill-rule="evenodd" clip-rule="evenodd" d="M84.4913 18.745H89.9098V21.2799H84.4913V24.4486H92.0904V27.0502H81.5508V12.5078H92.0904V15.1094H84.4913V18.745Z" fill="#66513F"/>
<path fill-rule="evenodd" clip-rule="evenodd" d="M84.4913 18.745H89.9098V21.2799H84.4913V24.4486H92.0904V27.0502H81.5508V12.5078H92.0904V15.1094H84.4913V18.745Z" fill="#66513F"/>
<path d="M123.742 36.7235H125.394L124.568 34.3887L123.742 36.7235ZM125.824 37.8909H123.346L122.817 39.3585H121.363L123.874 32.6543H125.328L127.806 39.3585H126.352L125.824 37.8909Z" fill="#66513F"/>
<path d="M123.742 36.7235H125.394L124.568 34.3887L123.742 36.7235ZM125.824 37.8909H123.346L122.817 39.3585H121.363L123.874 32.6543H125.328L127.806 39.3585H126.352L125.824 37.8909Z" fill="#66513F"/>
<path d="M134.679 39.3252H133.324V32.6211H134.679L137.355 36.7903V32.6211H138.743V39.3252H137.355L134.679 35.156V39.3252Z" fill="#66513F"/>
<path d="M134.679 39.3252H133.324V32.6211H134.679L137.355 36.7903V32.6211H138.743V39.3252H137.355L134.679 35.156V39.3252Z" fill="#66513F"/>
<path fill-rule="evenodd" clip-rule="evenodd" d="M101.441 35.5229H104.051V36.6569H101.441V39.3252H100.086V32.6211H104.745V33.8218H101.441V35.5229Z" fill="#66513F"/>
<path fill-rule="evenodd" clip-rule="evenodd" d="M101.441 35.5229H104.051V36.6569H101.441V39.3252H100.086V32.6211H104.745V33.8218H101.441V35.5229Z" fill="#66513F"/>
<path fill-rule="evenodd" clip-rule="evenodd" d="M115.845 39.3252H115.647H114.326L113.004 36.6569H111.616V39.3252H110.262V32.6211H113.698C114.788 32.6211 115.713 33.5216 115.713 34.6557C115.713 35.5229 115.185 36.2567 114.425 36.5569L115.845 39.3252ZM111.649 33.7885V35.5896H113.467C113.962 35.5896 114.359 35.1893 114.359 34.7224C114.359 34.2221 113.962 33.8218 113.467 33.8218H111.649V33.7885Z" fill="#66513F"/>
<path fill-rule="evenodd" clip-rule="evenodd" d="M115.845 39.3252H115.647H114.326L113.004 36.6569H111.616V39.3252H110.262V32.6211H113.698C114.788 32.6211 115.713 33.5216 115.713 34.6557C115.713 35.5229 115.185 36.2567 114.425 36.5569L115.845 39.3252ZM111.649 33.7885V35.5896H113.467C113.962 35.5896 114.359 35.1893 114.359 34.7224C114.359 34.2221 113.962 33.8218 113.467 33.8218H111.649V33.7885Z" fill="#66513F"/>
<path fill-rule="evenodd" clip-rule="evenodd" d="M144.262 35.9906C144.262 34.0227 145.815 32.4551 147.83 32.4551C149.383 32.4551 150.638 33.389 151.134 34.6898L151.2 34.8232H149.713C149.317 34.1228 148.623 33.6892 147.83 33.6892C146.641 33.6892 145.649 34.6898 145.649 35.9572C145.649 37.1913 146.641 38.2253 147.83 38.2253C148.623 38.2253 149.317 37.7917 149.713 37.0913H151.2L151.134 37.2247C150.638 38.5589 149.35 39.4594 147.83 39.4594C145.815 39.4928 144.262 37.9918 144.262 35.9906Z" fill="#66513F"/>
<path fill-rule="evenodd" clip-rule="evenodd" d="M144.262 35.9906C144.262 34.0227 145.815 32.4551 147.83 32.4551C149.383 32.4551 150.638 33.389 151.134 34.6898L151.2 34.8232H149.713C149.317 34.1228 148.623 33.6892 147.83 33.6892C146.641 33.6892 145.649 34.6898 145.649 35.9572C145.649 37.1913 146.641 38.2253 147.83 38.2253C148.623 38.2253 149.317 37.7917 149.713 37.0913H151.2L151.134 37.2247C150.638 38.5589 149.35 39.4594 147.83 39.4594C145.815 39.4928 144.262 37.9918 144.262 35.9906Z" fill="#66513F"/>
<path fill-rule="evenodd" clip-rule="evenodd" d="M158.073 35.5229H160.551V36.6569H158.073V38.1245H161.344V39.3252H156.719V32.6211H161.344V33.8218H158.073V35.5229Z" fill="#66513F"/>
<path fill-rule="evenodd" clip-rule="evenodd" d="M158.073 35.5229H160.551V36.6569H158.073V38.1245H161.344V39.3252H156.719V32.6211H161.344V33.8218H158.073V35.5229Z" fill="#66513F"/>
</svg>
