<svg width="227" height="226" viewBox="0 0 227 226" fill="none" xmlns="http://www.w3.org/2000/svg">
<path d="M113.615 0.251221C85.7085 0.251221 63.0856 22.8741 63.0856 50.7808V62.4775H51.389C23.4822 62.4775 0.859377 85.1003 0.859375 113.007C0.859374 140.914 23.4822 163.537 51.389 163.537H63.0856V175.233C63.0856 203.14 85.7085 225.763 113.615 225.763C141.522 225.763 164.145 203.14 164.145 175.233V163.537H175.841C203.748 163.537 226.371 140.914 226.371 113.007C226.371 85.1003 203.748 62.4775 175.841 62.4775H164.145V50.7808C164.145 22.8741 141.522 0.251221 113.615 0.251221Z" fill="#3840ED"/>
</svg>
