<svg width="280" height="162" viewBox="0 0 280 162" fill="none" xmlns="http://www.w3.org/2000/svg">
<path d="M225.994 153.113C217.248 132.903 226.541 109.43 246.751 100.684L255.221 97.0186L251.555 88.5481C242.81 68.3385 252.103 44.8653 272.312 36.1193C292.522 27.3734 315.995 36.6665 324.741 56.8761L328.407 65.3467L336.877 61.6809C357.087 52.935 380.56 62.2281 389.306 82.4377C398.052 102.647 388.759 126.121 368.549 134.866L360.079 138.532L363.744 147.003C372.49 167.212 363.197 190.686 342.988 199.432C322.778 208.177 299.305 198.884 290.559 178.675L286.893 170.204L278.423 173.87C258.213 182.616 234.74 173.323 225.994 153.113Z" stroke="#8092A3" stroke-width="4"/>
<circle cx="107.774" cy="107.774" r="107.774" transform="matrix(0.5 0.866025 0.866025 -0.5 0.658203 195.555)" stroke="#EF404B" stroke-width="4"/>
<path d="M203.656 163.029L219.59 165.526L207.039 175.654L222.086 169.849L216.281 184.896L226.41 172.345L228.906 188.279L231.402 172.345L241.531 184.896L235.726 169.849L250.773 175.654L238.222 165.526L254.156 163.029L238.222 160.533L250.773 150.404L235.726 156.21L241.531 141.162L231.402 153.713L228.906 137.779L226.41 153.713L216.281 141.162L222.086 156.21L207.039 150.404L219.59 160.533L203.656 163.029Z" fill="white"/>
</svg>
