<svg width="413" height="543" viewBox="0 0 413 543" fill="none" xmlns="http://www.w3.org/2000/svg">
<path d="M406.615 147.191C363.131 154.175 322.217 124.587 315.233 81.1022L312.305 62.8764L294.079 65.8039C250.595 72.7886 209.681 43.1998 202.697 -0.284629C195.712 -43.769 225.301 -84.6823 268.785 -91.667L287.011 -94.5945L284.084 -112.82C277.099 -156.305 306.688 -197.218 350.173 -204.203C393.657 -211.187 434.57 -181.599 441.555 -138.114L444.483 -119.888L462.708 -122.816C506.193 -129.801 547.106 -100.212 554.091 -56.7273C561.076 -13.2429 531.487 27.6704 488.002 34.6551L469.776 37.5826L472.704 55.8084C479.688 99.2928 450.1 140.206 406.615 147.191Z" stroke="#8092A3" stroke-width="8"/>
<circle cx="215.548" cy="215.548" r="215.548" transform="matrix(0.962578 -0.271003 -0.271003 -0.962578 377.746 604.881)" stroke="#EF404B" stroke-width="8"/>
<path d="M414.819 195.379L427.516 165.726L440.958 195.048L437.127 163.02L463.43 181.693L444.098 155.871L476.213 158.891L446.56 146.194L475.883 132.753L443.854 136.583L462.527 110.281L436.705 129.613L439.725 97.4977L427.029 127.15L413.587 97.828L417.417 129.856L391.115 111.183L410.447 137.005L378.332 133.985L407.985 146.682L378.662 160.124L410.691 156.293L392.018 182.595L417.84 163.264L414.819 195.379Z" fill="white"/>
</svg>
