<svg width="375" height="690" viewBox="0 0 375 690" fill="none" xmlns="http://www.w3.org/2000/svg">
<g clip-path="url(#clip0_2_978)">
<rect width="375" height="2898" fill="#111F2D"/>
<mask id="path-1-inside-1_2_978" fill="white">
<path fill-rule="evenodd" clip-rule="evenodd" d="M71.3136 527.478L12.8757 561.217L56.497 636.772L-27.7726 614.192L-45.2373 679.371L39.0317 701.95L-36.5218 745.571L-2.78268 804.009L72.7708 760.388L50.191 844.657L115.37 862.122L137.95 777.852L181.571 853.407L240.009 819.667L196.388 744.114L280.657 766.694L298.122 701.515L213.852 678.935L289.407 635.314L255.667 576.876L180.113 620.497L202.693 536.227L137.514 518.762L114.934 603.032L71.3136 527.478Z"/>
</mask>
<path d="M12.8757 561.217L10.3757 556.887L6.04557 559.387L8.54557 563.717L12.8757 561.217ZM71.3136 527.478L75.6437 524.978L73.1437 520.648L68.8136 523.148L71.3136 527.478ZM56.497 636.772L55.2029 641.601L66.8626 644.725L60.8271 634.272L56.497 636.772ZM-27.7726 614.192L-26.4785 609.362L-31.3081 608.068L-32.6022 612.898L-27.7726 614.192ZM-45.2373 679.371L-50.0669 678.076L-51.361 682.906L-46.5314 684.2L-45.2373 679.371ZM39.0317 701.95L41.5317 706.281L51.9856 700.245L40.3258 697.121L39.0317 701.95ZM-36.5218 745.571L-39.0218 741.241L-43.3519 743.741L-40.8519 748.071L-36.5218 745.571ZM-2.78268 804.009L-7.11281 806.509L-4.61281 810.839L-0.282684 808.339L-2.78268 804.009ZM72.7708 760.388L77.6004 761.682L80.7246 750.023L70.2708 756.058L72.7708 760.388ZM50.191 844.657L45.3614 843.363L44.0673 848.193L48.8969 849.487L50.191 844.657ZM115.37 862.122L114.076 866.951L118.906 868.245L120.2 863.416L115.37 862.122ZM137.95 777.852L142.28 775.352L136.245 764.898L133.12 776.558L137.95 777.852ZM181.571 853.407L177.241 855.907L179.741 860.237L184.071 857.737L181.571 853.407ZM240.009 819.667L242.509 823.998L246.839 821.498L244.339 817.167L240.009 819.667ZM196.388 744.114L197.682 739.284L186.023 736.16L192.058 746.614L196.388 744.114ZM280.657 766.694L279.363 771.523L284.193 772.818L285.487 767.988L280.657 766.694ZM298.122 701.515L302.952 702.809L304.246 697.979L299.416 696.685L298.122 701.515ZM213.852 678.935L211.352 674.605L200.898 680.64L212.558 683.765L213.852 678.935ZM289.407 635.314L291.907 639.644L296.237 637.144L293.737 632.814L289.407 635.314ZM255.667 576.876L259.998 574.376L257.498 570.046L253.167 572.546L255.667 576.876ZM180.113 620.497L175.283 619.203L172.159 630.863L182.613 624.827L180.113 620.497ZM202.693 536.227L207.523 537.521L208.817 532.691L203.987 531.397L202.693 536.227ZM137.514 518.762L138.808 513.933L133.979 512.639L132.685 517.468L137.514 518.762ZM114.934 603.032L110.604 605.532L116.64 615.986L119.764 604.326L114.934 603.032ZM15.3757 565.547L73.8136 531.808L68.8136 523.148L10.3757 556.887L15.3757 565.547ZM60.8271 634.272L17.2058 558.717L8.54557 563.717L52.1669 639.272L60.8271 634.272ZM-29.0667 619.021L55.2029 641.601L57.7911 631.942L-26.4785 609.362L-29.0667 619.021ZM-40.4076 680.665L-22.943 615.486L-32.6022 612.898L-50.0669 678.076L-40.4076 680.665ZM40.3258 697.121L-43.9432 674.541L-46.5314 684.2L37.7376 706.78L40.3258 697.121ZM-34.0218 749.901L41.5317 706.281L36.5317 697.62L-39.0218 741.241L-34.0218 749.901ZM1.54744 801.509L-32.1917 743.071L-40.8519 748.071L-7.11281 806.509L1.54744 801.509ZM70.2708 756.058L-5.28268 799.679L-0.282684 808.339L75.2708 764.718L70.2708 756.058ZM55.0207 845.951L77.6004 761.682L67.9411 759.094L45.3614 843.363L55.0207 845.951ZM116.664 857.292L51.4851 839.827L48.8969 849.487L114.076 866.951L116.664 857.292ZM133.12 776.558L110.54 860.828L120.2 863.416L142.78 779.146L133.12 776.558ZM185.901 850.907L142.28 775.352L133.62 780.352L177.241 855.907L185.901 850.907ZM237.509 815.337L179.071 849.076L184.071 857.737L242.509 823.998L237.509 815.337ZM192.058 746.614L235.679 822.167L244.339 817.167L200.718 741.614L192.058 746.614ZM281.952 761.864L197.682 739.284L195.094 748.944L279.363 771.523L281.952 761.864ZM293.293 700.221L275.828 765.4L285.487 767.988L302.952 702.809L293.293 700.221ZM212.558 683.765L296.828 706.345L299.416 696.685L215.146 674.105L212.558 683.765ZM286.907 630.983L211.352 674.605L216.352 683.265L291.907 639.644L286.907 630.983ZM251.337 579.376L285.076 637.814L293.737 632.814L259.998 574.376L251.337 579.376ZM182.613 624.827L258.167 581.206L253.167 572.546L177.613 616.167L182.613 624.827ZM197.864 534.933L175.283 619.203L184.943 621.791L207.523 537.521L197.864 534.933ZM136.22 523.592L201.399 541.057L203.987 531.397L138.808 513.933L136.22 523.592ZM119.764 604.326L142.344 520.056L132.685 517.468L110.105 601.738L119.764 604.326ZM66.9834 529.978L110.604 605.532L119.264 600.532L75.6437 524.978L66.9834 529.978Z" fill="#8092A3" mask="url(#path-1-inside-1_2_978)"/>
<path d="M70.7239 317.15C105.586 297.023 150.165 308.967 170.293 343.83C190.421 378.692 178.476 423.271 143.613 443.399L-11.859 533.161C-46.7215 553.289 -91.3 541.344 -111.428 506.481C-131.556 471.619 -119.611 427.04 -84.7484 406.912L70.7239 317.15Z" fill="#3840ED"/>
<mask id="path-4-inside-2_2_978" fill="white">
<path fill-rule="evenodd" clip-rule="evenodd" d="M507.097 372.261C485.372 342.293 443.467 335.611 413.5 357.336C383.533 379.061 376.851 420.966 398.576 450.933L500.642 591.724C522.367 621.691 564.272 628.373 594.239 606.648C624.206 584.924 630.888 543.019 609.163 513.052L507.097 372.261ZM497.146 659.564L331.735 431.395L237.026 500.055L402.437 728.224L497.146 659.564Z"/>
</mask>
<path d="M331.735 431.395L335.783 428.461L332.849 424.412L328.8 427.347L331.735 431.395ZM497.146 659.564L500.081 663.613L504.129 660.678L501.195 656.63L497.146 659.564ZM237.026 500.055L234.091 496.007L230.043 498.941L232.978 502.99L237.026 500.055ZM402.437 728.224L398.389 731.159L401.323 735.207L405.372 732.272L402.437 728.224ZM416.435 361.384C444.166 341.28 482.945 347.464 503.049 375.195L511.145 369.326C487.8 337.123 442.768 329.943 410.565 353.288L416.435 361.384ZM402.624 447.998C382.52 420.267 388.703 381.488 416.435 361.384L410.565 353.288C378.362 376.634 371.182 421.665 394.528 453.868L402.624 447.998ZM504.69 588.789L402.624 447.998L394.528 453.868L496.594 594.659L504.69 588.789ZM591.304 602.6C563.573 622.704 524.794 616.521 504.69 588.789L496.594 594.659C519.94 626.862 564.971 634.042 597.174 610.697L591.304 602.6ZM605.115 515.986C625.219 543.718 619.036 582.496 591.304 602.6L597.174 610.697C629.377 587.351 636.557 542.32 613.212 510.117L605.115 515.986ZM503.049 375.195L605.115 515.986L613.212 510.117L511.145 369.326L503.049 375.195ZM327.687 434.33L493.098 662.499L501.195 656.63L335.783 428.461L327.687 434.33ZM239.96 504.103L334.67 435.443L328.8 427.347L234.091 496.007L239.96 504.103ZM406.485 725.289L241.074 497.12L232.978 502.99L398.389 731.159L406.485 725.289ZM494.212 655.516L399.502 724.176L405.372 732.272L500.081 663.613L494.212 655.516Z" fill="white" mask="url(#path-4-inside-2_2_978)"/>
<path d="M284.215 -216.261L-117.065 -181.338L-191.636 291.594L202.27 488.46L645.767 274.649L545.922 -69.6055L284.215 -216.261Z" fill="#EF404B"/>
</g>
<defs>
<clipPath id="clip0_2_978">
<rect width="375" height="2898" fill="white"/>
</clipPath>
</defs>
</svg>
