<svg width="1920" height="900" viewBox="0 0 1920 900" fill="none" xmlns="http://www.w3.org/2000/svg">
<g clip-path="url(#clip0_2_936)">
<rect width="1920" height="2386" fill="#111F2D"/>
<mask id="path-1-inside-1_2_936" fill="white">
<path fill-rule="evenodd" clip-rule="evenodd" d="M1260.79 -238.332L1105.19 -148.497L1221.34 52.6745L996.964 -7.44723L950.462 166.099L1174.84 226.22L973.668 342.366L1063.5 497.963L1264.67 381.818L1204.55 606.193L1378.1 652.694L1438.22 428.318L1554.37 629.49L1709.96 539.655L1593.82 338.486L1818.19 398.607L1864.7 225.061L1640.32 164.939L1841.49 48.7923L1751.66 -106.805L1550.48 9.34151L1610.61 -215.037L1437.06 -261.539L1376.94 -37.1619L1260.79 -238.332Z"/>
</mask>
<path d="M1105.19 -148.497L1101.19 -155.426L1094.27 -151.426L1098.27 -144.497L1105.19 -148.497ZM1260.79 -238.332L1267.72 -242.332L1263.72 -249.26L1256.79 -245.26L1260.79 -238.332ZM1221.34 52.6745L1219.27 60.402L1237.93 65.4007L1228.27 48.6745L1221.34 52.6745ZM996.964 -7.44723L999.035 -15.1746L991.307 -17.2452L989.237 -9.51778L996.964 -7.44723ZM950.462 166.099L942.735 164.029L940.664 171.756L948.392 173.827L950.462 166.099ZM1174.84 226.22L1178.84 233.149L1195.56 223.492L1176.91 218.493L1174.84 226.22ZM973.668 342.366L969.668 335.438L962.74 339.438L966.74 346.366L973.668 342.366ZM1063.5 497.963L1056.57 501.963L1060.57 508.891L1067.5 504.891L1063.5 497.963ZM1264.67 381.818L1272.4 383.888L1277.4 365.233L1260.67 374.89L1264.67 381.818ZM1204.55 606.193L1196.82 604.122L1194.75 611.85L1202.48 613.92L1204.55 606.193ZM1378.1 652.694L1376.03 660.422L1383.75 662.492L1385.82 654.765L1378.1 652.694ZM1438.22 428.318L1445.15 424.318L1435.49 407.591L1430.49 426.247L1438.22 428.318ZM1554.37 629.49L1547.44 633.49L1551.44 640.418L1558.37 636.418L1554.37 629.49ZM1709.96 539.655L1713.96 546.584L1720.89 542.584L1716.89 535.655L1709.96 539.655ZM1593.82 338.486L1595.89 330.758L1577.23 325.76L1586.89 342.486L1593.82 338.486ZM1818.19 398.607L1816.12 406.335L1823.85 408.405L1825.92 400.678L1818.19 398.607ZM1864.7 225.061L1872.42 227.131L1874.49 219.404L1866.77 217.333L1864.7 225.061ZM1640.32 164.939L1636.32 158.011L1619.59 167.668L1638.25 172.666L1640.32 164.939ZM1841.49 48.7923L1845.49 55.7205L1852.42 51.7205L1848.42 44.7923L1841.49 48.7923ZM1751.66 -106.805L1758.58 -110.805L1754.58 -117.733L1747.66 -113.733L1751.66 -106.805ZM1550.48 9.34151L1542.76 7.27095L1537.76 25.9266L1554.48 16.2697L1550.48 9.34151ZM1610.61 -215.037L1618.33 -212.967L1620.4 -220.694L1612.68 -222.765L1610.61 -215.037ZM1437.06 -261.539L1439.13 -269.266L1431.4 -271.337L1429.33 -263.609L1437.06 -261.539ZM1376.94 -37.1619L1370.01 -33.1619L1379.67 -16.4358L1384.66 -35.0914L1376.94 -37.1619ZM1109.19 -141.569L1264.79 -231.403L1256.79 -245.26L1101.19 -155.426L1109.19 -141.569ZM1228.27 48.6745L1112.12 -152.497L1098.27 -144.497L1214.41 56.6745L1228.27 48.6745ZM994.894 0.280179L1219.27 60.402L1223.41 44.9471L999.035 -15.1746L994.894 0.280179ZM958.19 168.17L1004.69 -5.37667L989.237 -9.51778L942.735 164.029L958.19 168.17ZM1176.91 218.493L952.533 158.372L948.392 173.827L1172.77 233.948L1176.91 218.493ZM977.668 349.294L1178.84 233.149L1170.84 219.292L969.668 335.438L977.668 349.294ZM1070.43 493.963L980.597 338.366L966.74 346.366L1056.57 501.963L1070.43 493.963ZM1260.67 374.89L1059.5 491.035L1067.5 504.891L1268.67 388.746L1260.67 374.89ZM1212.28 608.263L1272.4 383.888L1256.94 379.747L1196.82 604.122L1212.28 608.263ZM1380.17 644.967L1206.62 598.465L1202.48 613.92L1376.03 660.422L1380.17 644.967ZM1430.49 426.247L1370.37 650.624L1385.82 654.765L1445.95 430.388L1430.49 426.247ZM1561.29 625.49L1445.15 424.318L1431.29 432.318L1547.44 633.49L1561.29 625.49ZM1705.96 532.727L1550.37 622.561L1558.37 636.418L1713.96 546.584L1705.96 532.727ZM1586.89 342.486L1703.03 543.655L1716.89 535.655L1600.75 334.486L1586.89 342.486ZM1820.26 390.88L1595.89 330.758L1591.75 346.213L1816.12 406.335L1820.26 390.88ZM1856.97 222.99L1810.47 396.537L1825.92 400.678L1872.42 227.131L1856.97 222.99ZM1638.25 172.666L1862.63 232.788L1866.77 217.333L1642.39 157.212L1638.25 172.666ZM1837.49 41.8641L1636.32 158.011L1644.32 171.867L1845.49 55.7205L1837.49 41.8641ZM1744.73 -102.805L1834.56 52.7923L1848.42 44.7923L1758.58 -110.805L1744.73 -102.805ZM1554.48 16.2697L1755.66 -99.877L1747.66 -113.733L1546.48 2.4133L1554.48 16.2697ZM1602.88 -217.108L1542.76 7.27095L1558.21 11.4121L1618.33 -212.967L1602.88 -217.108ZM1434.99 -253.811L1608.53 -207.31L1612.68 -222.765L1439.13 -269.266L1434.99 -253.811ZM1384.66 -35.0914L1444.79 -259.468L1429.33 -263.609L1369.21 -39.2325L1384.66 -35.0914ZM1253.86 -234.332L1370.01 -33.1619L1383.87 -41.1619L1267.72 -242.332L1253.86 -234.332Z" fill="#8092A3" mask="url(#path-1-inside-1_2_936)"/>
<path d="M941.842 609.697C1044.78 550.264 1176.41 585.534 1235.85 688.475C1295.28 791.416 1260.01 923.047 1157.07 982.48L697.994 1247.53C595.053 1306.96 463.422 1271.69 403.989 1168.75C344.556 1065.81 379.826 934.177 482.768 874.744L941.842 609.697Z" fill="#3840ED"/>
<mask id="path-4-inside-2_2_936" fill="white">
<path fill-rule="evenodd" clip-rule="evenodd" d="M2199.73 525.6C2117.64 412.367 1959.31 387.119 1846.07 469.207C1732.84 551.296 1707.59 709.635 1789.68 822.868L2175.34 1354.85C2257.43 1468.09 2415.77 1493.33 2529 1411.25C2642.24 1329.16 2667.48 1170.82 2585.4 1057.59L2199.73 525.6ZM2162.13 1611.19L1537.12 749.043L1179.25 1008.48L1804.27 1870.63L2162.13 1611.19Z"/>
</mask>
<path d="M1537.12 749.043L1543.6 744.348L1538.9 737.871L1532.42 742.566L1537.12 749.043ZM2162.13 1611.19L2166.83 1617.67L2173.31 1612.97L2168.61 1606.5L2162.13 1611.19ZM1179.25 1008.48L1174.56 1002L1168.08 1006.7L1172.78 1013.17L1179.25 1008.48ZM1804.27 1870.63L1797.79 1875.32L1802.49 1881.8L1808.97 1877.1L1804.27 1870.63ZM1850.77 475.684C1960.42 396.189 2113.76 420.64 2193.26 530.296L2206.21 520.904C2121.53 404.094 1958.19 378.049 1841.38 462.73L1850.77 475.684ZM1796.16 818.173C1716.66 708.517 1741.11 555.18 1850.77 475.684L1841.38 462.73C1724.57 547.412 1698.52 710.753 1783.2 827.564L1796.16 818.173ZM2181.82 1350.16L1796.16 818.173L1783.2 827.564L2168.87 1359.55L2181.82 1350.16ZM2524.31 1404.77C2414.65 1484.26 2261.32 1459.81 2181.82 1350.16L2168.87 1359.55C2253.55 1476.36 2416.89 1502.41 2533.7 1417.72L2524.31 1404.77ZM2578.92 1062.28C2658.41 1171.94 2633.96 1325.27 2524.31 1404.77L2533.7 1417.72C2650.51 1333.04 2676.56 1169.7 2591.87 1052.89L2578.92 1062.28ZM2193.26 530.296L2578.92 1062.28L2591.87 1052.89L2206.21 520.904L2193.26 530.296ZM1530.64 753.739L2155.66 1615.89L2168.61 1606.5L1543.6 744.348L1530.64 753.739ZM1183.95 1014.95L1541.81 755.52L1532.42 742.566L1174.56 1002L1183.95 1014.95ZM1810.75 1865.93L1185.73 1003.78L1172.78 1013.17L1797.79 1875.32L1810.75 1865.93ZM2157.44 1604.72L1799.57 1864.15L1808.97 1877.1L2166.83 1617.67L2157.44 1604.72Z" fill="white" mask="url(#path-4-inside-2_2_936)"/>
<path d="M-316.054 -211.695L-1084.37 466.391L-522.01 1546.85L581.615 1354.2L1165.88 246.246L441.158 -307.235L-316.054 -211.695Z" fill="#EF404B"/>
</g>
<defs>
<clipPath id="clip0_2_936">
<rect width="1920" height="2386" fill="white"/>
</clipPath>
</defs>
</svg>
