<svg width="21" height="20" viewBox="0 0 21 20" fill="none" xmlns="http://www.w3.org/2000/svg">
<g clip-path="url(#clip0_85_1834)">
<path d="M0.340454 10C0.340454 4.47715 4.81761 0 10.3405 0C15.8633 0 20.3405 4.47715 20.3405 10C20.3405 15.5228 15.8633 20 10.3405 20C4.81761 20 0.340454 15.5228 0.340454 10Z" fill="white"/>
<g clip-path="url(#clip1_85_1834)">
<path d="M0.340454 0H20.3405V20H0.340454V0Z" fill="#012169"/>
<path d="M20.3405 0V2.5L12.9186 10L20.3405 17.3047V20H17.7233L10.2623 12.6562L2.9967 20H0.340454V17.3438L7.60608 10.0391L0.340454 2.89062V0H2.76233L10.2623 7.34375L17.528 0H20.3405Z" fill="white"/>
<path d="M7.52795 12.6562L7.95764 13.9844L1.98108 20H0.340454V19.8828L7.52795 12.6562ZM12.3717 12.1875L14.4811 12.5L20.3405 18.2422V20L12.3717 12.1875ZM20.3405 0L12.8405 7.65625L12.6842 5.9375L18.5436 0H20.3405ZM0.340454 0.0390625L7.87952 7.42188L5.57483 7.10938L0.340454 1.91406V0.0390625Z" fill="#C8102E"/>
<path d="M7.21545 0V20H13.4655V0H7.21545ZM0.340454 6.875V13.125H20.3405V6.875H0.340454Z" fill="white"/>
<path d="M0.340454 8.125V11.875H20.3405V8.125H0.340454ZM8.46545 0V20H12.2155V0H8.46545Z" fill="#C8102E"/>
</g>
</g>
<path d="M10.3405 18C5.92218 18 2.34045 14.4183 2.34045 10H-1.65955C-1.65955 16.6274 3.71304 22 10.3405 22V18ZM18.3405 10C18.3405 14.4183 14.7587 18 10.3405 18V22C16.9679 22 22.3405 16.6274 22.3405 10H18.3405ZM10.3405 2C14.7587 2 18.3405 5.58172 18.3405 10H22.3405C22.3405 3.37258 16.9679 -2 10.3405 -2V2ZM10.3405 -2C3.71304 -2 -1.65955 3.37258 -1.65955 10H2.34045C2.34045 5.58172 5.92218 2 10.3405 2V-2Z" fill="white"/>
<defs>
<clipPath id="clip0_85_1834">
<path d="M0.340454 10C0.340454 4.47715 4.81761 0 10.3405 0C15.8633 0 20.3405 4.47715 20.3405 10C20.3405 15.5228 15.8633 20 10.3405 20C4.81761 20 0.340454 15.5228 0.340454 10Z" fill="white"/>
</clipPath>
<clipPath id="clip1_85_1834">
<rect width="20" height="20" fill="white" transform="translate(0.340454)"/>
</clipPath>
</defs>
</svg>
