<svg width="1440" height="600" viewBox="0 0 1440 600" fill="none" xmlns="http://www.w3.org/2000/svg">
<g clip-path="url(#clip0_2_1796)">
<rect width="1440" height="600" fill="#111F2D"/>
<path d="M1893.67 -233C1313.31 -233 829.426 292.555 720 990H2063V-217.879C2007.68 -227.845 1951.15 -233 1893.67 -233Z" fill="#EF404B"/>
<mask id="path-2-inside-1_2_1796" fill="white">
<path d="M1532.83 518.298C1442.29 608.839 1295.49 608.839 1204.95 518.298L779.579 92.9258C689.039 2.38528 689.038 -144.41 779.579 -234.95C870.119 -325.491 1016.91 -325.491 1107.46 -234.95L1532.83 190.422C1623.37 280.963 1623.37 427.758 1532.83 518.298Z"/>
</mask>
<path d="M1107.46 -234.95L1101.8 -229.294L1107.46 -234.95ZM779.579 92.9258L773.922 98.5826L779.579 92.9258ZM1204.95 518.298L1210.61 512.641L1204.95 518.298ZM1210.61 512.641L785.236 87.2689L773.922 98.5826L1199.29 523.955L1210.61 512.641ZM1101.8 -229.294L1527.17 196.079L1538.48 184.765L1113.11 -240.607L1101.8 -229.294ZM1527.17 196.079C1614.59 283.495 1614.59 425.225 1527.17 512.641L1538.48 523.955C1632.15 430.29 1632.15 278.43 1538.48 184.765L1527.17 196.079ZM785.236 -229.294C872.652 -316.71 1014.38 -316.71 1101.8 -229.294L1113.11 -240.607C1019.45 -334.272 867.587 -334.272 773.922 -240.607L785.236 -229.294ZM785.236 87.2689C697.82 -0.147384 697.82 -141.877 785.236 -229.294L773.922 -240.607C680.257 -146.943 680.257 4.91794 773.922 98.5826L785.236 87.2689ZM1199.29 523.955C1292.96 617.62 1444.82 617.62 1538.48 523.955L1527.17 512.641C1439.75 600.058 1298.02 600.058 1210.61 512.641L1199.29 523.955Z" fill="white" mask="url(#path-2-inside-1_2_1796)"/>
</g>
<defs>
<clipPath id="clip0_2_1796">
<rect width="1440" height="600" fill="white"/>
</clipPath>
</defs>
</svg>
