<svg width="55" height="55" viewBox="0 0 55 55" fill="none" xmlns="http://www.w3.org/2000/svg">
<path fill-rule="evenodd" clip-rule="evenodd" d="M27.9987 3C21.8113 3 16.7954 8.01589 16.7954 14.2033V16.7968H14.2033C8.0159 16.7968 3 21.8127 3 28.0001C3 34.1876 8.01589 39.2034 14.2033 39.2035H16.7954V41.7967C16.7954 47.9841 21.8113 53 27.9987 53C34.1861 53 39.202 47.9841 39.202 41.7967V39.2035H41.7967C47.9841 39.2035 53 34.1876 53 28.0001C53 21.8127 47.9841 16.7968 41.7967 16.7968H39.202V14.2033C39.202 8.0159 34.1861 3 27.9987 3Z" fill="#8092A3"/>
</svg>
