<svg width="50" height="51" viewBox="0 0 50 51" fill="none" xmlns="http://www.w3.org/2000/svg">
<path d="M0 25.5C0 11.6929 11.1929 0.5 25 0.5C38.8071 0.5 50 11.6929 50 25.5C50 39.3071 38.8071 50.5 25 50.5C11.1929 50.5 0 39.3071 0 25.5Z" fill="#EF404B"/>
<path d="M29.25 17L20.75 25.5L29.25 34" stroke="white" stroke-width="2"/>
<path d="M25 48.5C12.2975 48.5 2 38.2025 2 25.5H-2C-2 40.4117 10.0883 52.5 25 52.5V48.5ZM48 25.5C48 38.2025 37.7025 48.5 25 48.5V52.5C39.9117 52.5 52 40.4117 52 25.5H48ZM25 2.5C37.7025 2.5 48 12.7975 48 25.5H52C52 10.5883 39.9117 -1.5 25 -1.5V2.5ZM25 -1.5C10.0883 -1.5 -2 10.5883 -2 25.5H2C2 12.7975 12.2975 2.5 25 2.5V-1.5Z" fill="#EF404B"/>
</svg>
