<svg width="119" height="80" viewBox="0 0 119 80" fill="none" xmlns="http://www.w3.org/2000/svg">
<path d="M24.0778 57.5744C24.7826 64.9821 28.1879 71.5914 33.2976 76.4214C14.0367 68.4608 -0.675769 50.0033 1.15437 28.4804L0.158095 28.3956L1.15437 28.4803C2.46999 13.0067 13.6983 1 29.0565 1C44.4095 1 56.8628 13.3992 56.9546 28.7279V28.8981C56.9546 44.308 44.465 56.7966 29.056 56.7966C27.765 56.7966 26.4935 56.6715 25.214 56.4897L23.9576 56.3111L24.0778 57.5744Z" stroke="#8092A3" stroke-width="2"/>
<path d="M85.1228 57.5745C85.8283 64.9821 89.2332 71.5915 94.3428 76.4215C75.0817 68.461 60.3691 50.0033 62.1993 28.4804L61.2031 28.3957L62.1993 28.4803C63.5149 13.0068 74.745 1 90.1015 1C105.454 1 117.908 13.3992 118 28.7279V28.8981C118 44.308 105.511 56.7966 90.101 56.7966C88.8119 56.7966 87.5384 56.6715 86.2589 56.4897L85.0024 56.3111L85.1228 57.5745Z" stroke="#8092A3" stroke-width="2"/>
</svg>
