<svg width="220" height="68" viewBox="0 0 220 68" fill="none" xmlns="http://www.w3.org/2000/svg">
<g clip-path="url(#clip0_2702_62773)">
<path d="M187.362 4.61621H32.5859V44.8715H187.362V4.61621Z" fill="#003D7C"/>
<path fill-rule="evenodd" clip-rule="evenodd" d="M59.1786 37.0912L64.5082 21.532V37.0912H72.4758V12.3428H61.7088L56.5407 24.717L51.3725 12.3428H40.6055V37.0912H48.5731V21.532L53.9566 37.0912H59.1786ZM144.938 27.4842C147.414 27.2753 149.891 25.6568 149.891 22.9418V17.3551V16.833C149.621 14.0658 147.468 12.5516 144.884 12.3428H124.373V37.0912H132.34V27.4842H135.517L140.685 37.0912H149.837L143.646 27.4842H144.938ZM142.677 21.0621C142.677 21.5843 142.515 22.0542 141.546 22.0542H132.287V17.1985H141.546C142.677 17.1985 142.677 17.9294 142.677 18.3471V21.0621ZM96.4324 17.1985V12.3428H75.6521V37.0912H96.6478V32.2355H83.6197V26.9099H96.3786V22.0542H83.6197V17.1985H96.4324ZM106.392 17.1985H98.8012V12.3428H121.95V17.1985H114.36V37.0912H106.392V17.1985ZM175.032 12.3428H158.074C155.543 12.5516 153.39 13.8047 153.067 16.6241V32.6009C153.336 35.4204 155.49 36.8823 158.074 37.0912H175.032C177.562 36.8823 179.715 35.4204 180.038 32.6009V16.6241C179.715 13.8047 177.562 12.5516 175.032 12.3428ZM172.017 31.139C171.963 31.4001 171.855 32.131 170.886 32.2355H162.219C161.25 32.131 161.035 31.4001 161.035 31.139V18.1905C161.088 17.9294 161.196 17.3029 162.165 17.1985H170.833C171.802 17.3029 171.909 17.8772 171.963 18.1905V31.139H172.017Z" fill="#003D7C"/>
<path d="M187.362 4.61621H32.5859V44.8715H187.362V4.61621Z" fill="#003D7C"/>
<path fill-rule="evenodd" clip-rule="evenodd" d="M59.1786 37.0912L64.5082 21.532V37.0912H72.4758V12.3428H61.7088L56.5407 24.717L51.3725 12.3428H40.6055V37.0912H48.5731V21.532L53.9566 37.0912H59.1786ZM144.938 27.4842C147.414 27.2753 149.891 25.6568 149.891 22.9418V17.3551V16.833C149.621 14.0658 147.468 12.5516 144.884 12.3428H124.373V37.0912H132.34V27.4842H135.517L140.685 37.0912H149.837L143.646 27.4842H144.938ZM142.677 21.0621C142.677 21.5843 142.515 22.0542 141.546 22.0542H132.287V17.1985H141.546C142.677 17.1985 142.677 17.9294 142.677 18.3471V21.0621ZM96.4324 17.1985V12.3428H75.6521V37.0912H96.6478V32.2355H83.6197V26.9099H96.3786V22.0542H83.6197V17.1985H96.4324ZM106.392 17.1985H98.8012V12.3428H121.95V17.1985H114.36V37.0912H106.392V17.1985ZM175.032 12.3428H158.074C155.543 12.5516 153.39 13.8047 153.067 16.6241V32.6009C153.336 35.4204 155.49 36.8823 158.074 37.0912H175.032C177.562 36.8823 179.715 35.4204 180.038 32.6009V16.6241C179.715 13.8047 177.562 12.5516 175.032 12.3428ZM172.017 31.139C171.963 31.4001 171.855 32.131 170.886 32.2355H162.219C161.25 32.131 161.035 31.4001 161.035 31.139V18.1905C161.088 17.9294 161.196 17.3029 162.165 17.1985H170.833C171.802 17.3029 171.909 17.8772 171.963 18.1905V31.139H172.017Z" fill="#FFE500"/>
<path d="M76.5687 56.8801V57.089C76.5687 57.9766 76.138 58.0288 75.2766 58.0288C73.9846 58.0288 73.9307 57.6111 73.9307 56.4624V55.2615C73.9307 54.1651 74.0384 53.7996 75.2766 53.7996C75.9765 53.7996 76.5148 53.8518 76.5687 54.5306V54.8438H78.7221V54.5306C78.6682 52.2333 77.6454 52.0244 75.492 52.0244C73.1771 52.0244 71.7773 52.3899 71.7773 54.9483V56.9323C71.7773 59.7518 73.3386 59.8562 75.492 59.8562C76.4072 59.8562 77.2685 59.8562 78.0222 59.2819C78.7221 58.7075 78.7759 57.9243 78.7759 57.089V56.8801" fill="#003D7C"/>
<path fill-rule="evenodd" clip-rule="evenodd" d="M83.5141 59.804H85.3445V56.4625C85.3445 54.6351 84.5369 54.374 82.7065 54.374C81.4145 54.374 80.1763 54.374 80.1763 56.0448H82.0067C82.0067 55.5749 82.2758 55.4705 82.7604 55.4705C83.5679 55.4705 83.5679 55.7837 83.5679 56.3059V57.1412H83.4602C83.2449 56.5147 82.4912 56.5147 81.9528 56.5147C80.6608 56.5147 79.9609 56.9324 79.9609 58.1855C79.9609 59.543 80.7146 59.8563 81.9528 59.8563C82.5989 59.8563 83.4064 59.7518 83.5679 59.0209H83.6217L83.5141 59.804ZM82.4912 57.5589C83.0834 57.5589 83.4602 57.6112 83.4602 58.0288C83.4602 58.6032 83.2449 58.7076 82.4912 58.7076C82.222 58.7076 81.6837 58.7076 81.6837 58.1333C81.7375 57.6634 82.0605 57.5589 82.4912 57.5589Z" fill="#003D7C"/>
<path d="M91.7502 55.9404V55.6793C91.7502 54.374 90.2967 54.374 89.3276 54.374C87.7664 54.374 86.6359 54.4262 86.6359 56.1492C86.6359 57.2457 87.0665 57.7678 89.3276 57.7678C89.9736 57.7678 90.2967 57.7678 90.2967 58.2899C90.2967 58.7076 90.189 58.7598 89.3276 58.7598C88.8969 58.7598 88.4124 58.7598 88.4124 58.1333H86.582C86.582 59.9085 87.8741 59.8563 89.2738 59.8563C90.7273 59.8563 91.9655 59.5952 91.9655 58.0288C91.9655 56.5147 91.1042 56.4103 89.2738 56.3581C88.3586 56.3581 88.3048 56.1492 88.3048 55.8882C88.3048 55.5749 88.3048 55.4705 89.2738 55.4705C89.543 55.4705 89.9736 55.4705 90.0275 55.9404" fill="#003D7C"/>
<path d="M95.1429 52.127H93.3125V59.8021H95.1429V56.826C95.1429 56.1473 95.3044 55.6774 96.1119 55.6774C96.7041 55.6774 96.8656 55.9384 96.8656 56.4605V59.7499H98.696V56.095C98.696 54.9464 98.1577 54.3721 96.9195 54.3721C96.0581 54.3721 95.5197 54.5809 95.2506 55.4163H95.1967" fill="#003D7C"/>
<path fill-rule="evenodd" clip-rule="evenodd" d="M110.863 59.804L111.778 58.7075L110.916 57.9243C111.024 57.6633 111.132 57.4022 111.132 57.1934V55.6792H109.463V56.6713L107.525 55.0005C107.256 54.7916 107.094 54.5828 107.094 54.2173C107.094 53.643 107.256 53.5386 107.794 53.5386C108.225 53.5386 108.44 53.5908 108.601 53.6952C108.709 53.8518 108.763 54.0607 108.763 54.4784H110.593V54.1129C110.593 52.2855 109.624 52.0244 107.848 52.0244C106.071 52.0244 105.21 52.3377 105.21 54.0607C105.21 54.6872 105.318 54.9483 105.802 55.366C104.618 55.366 104.402 56.4102 104.402 57.35C104.402 59.5951 105.802 59.804 107.848 59.804C108.709 59.804 109.678 59.804 110.217 59.1252L110.863 59.804ZM108.924 58.081C108.548 58.2376 108.171 58.2376 107.848 58.2376C106.879 58.2376 106.34 58.2376 106.34 57.2456C106.34 56.8801 106.34 56.4102 106.825 56.358L108.924 58.081Z" fill="#003D7C"/>
<path d="M121.682 56.8801V57.089C121.682 57.9766 121.251 58.0288 120.39 58.0288C119.098 58.0288 119.044 57.6111 119.044 56.4624V55.2615C119.044 54.1651 119.152 53.7996 120.39 53.7996C121.09 53.7996 121.628 53.8518 121.682 54.5306V54.8438H123.835V54.5306C123.782 52.2333 122.759 52.0244 120.605 52.0244C118.29 52.0244 116.891 52.3899 116.891 54.9483V56.9323C116.891 59.7518 118.452 59.8562 120.605 59.8562C121.52 59.8562 122.382 59.8562 123.136 59.2819C123.835 58.7075 123.889 57.9243 123.889 57.089V56.8801" fill="#003D7C"/>
<path fill-rule="evenodd" clip-rule="evenodd" d="M128.573 59.804H130.403V56.4625C130.403 54.6351 129.596 54.374 127.765 54.374C126.473 54.374 125.235 54.374 125.235 56.0448H127.065C127.065 55.5749 127.334 55.4705 127.819 55.4705C128.626 55.4705 128.626 55.7837 128.626 56.3059V57.1412H128.519C128.303 56.5147 127.55 56.5147 127.011 56.5147C125.719 56.5147 125.02 56.9324 125.02 58.1855C125.02 59.543 125.773 59.8563 127.011 59.8563C127.657 59.8563 128.465 59.7518 128.626 59.0209H128.68L128.573 59.804ZM127.604 57.5589C128.196 57.5589 128.573 57.6112 128.573 58.0288C128.573 58.6032 128.357 58.7076 127.604 58.7076C127.334 58.7076 126.796 58.7076 126.796 58.1333C126.796 57.6634 127.173 57.5589 127.604 57.5589Z" fill="#003D7C"/>
<path d="M134.871 56.7758H136.486V56.3581C136.486 55.366 136.378 54.374 135.14 54.374C134.44 54.374 134.01 54.6351 133.741 55.2094H133.687V54.4262H131.91V59.804H133.741V56.5669C133.741 56.1492 133.848 55.7315 134.44 55.7315C134.925 55.7315 134.925 56.1492 134.925 56.5147" fill="#003D7C"/>
<path d="M140.686 56.7758H142.301V56.3581C142.301 55.366 142.193 54.374 140.955 54.374C140.255 54.374 139.824 54.6351 139.555 55.2094H139.501V54.4262H137.725V59.804H139.555V56.5669C139.555 56.1492 139.663 55.7315 140.255 55.7315C140.739 55.7315 140.739 56.1492 140.739 56.5147" fill="#003D7C"/>
<path d="M148.708 54.4248H146.823L145.908 58.8106L144.831 54.4248H142.947L144.616 59.8026H145.585C145.531 60.4292 145.37 60.9513 144.616 60.9513C144.508 60.9513 144.401 60.9513 144.293 60.9513V62.1522C144.508 62.1522 144.724 62.2044 144.939 62.2044C146.5 62.2044 147.039 61.6822 147.308 60.2725" fill="#003D7C"/>
</g>
<defs>
<clipPath id="clip0_2702_62773">
<rect width="154" height="57.3143" fill="white" transform="translate(33 4.85742)"/>
</clipPath>
</defs>
</svg>
