<svg width="220" height="70" viewBox="0 0 220 70" fill="none" xmlns="http://www.w3.org/2000/svg">
<path d="M21.1607 17.4553C11.5462 17.4553 3.78184 25.3268 3.78184 34.9995C3.78184 44.7055 11.5462 52.5437 21.1607 52.5437C30.7422 52.5437 38.5396 44.7055 38.5396 34.9995C38.5396 25.3268 30.7422 17.4553 21.1607 17.4553ZM0.742188 34.9995C0.742188 23.6258 9.89418 14.3867 21.1607 14.3867C32.4273 14.3867 41.5793 23.6258 41.5793 34.9995C41.5793 46.3732 32.4273 55.6123 21.1607 55.6123C9.89418 55.6123 0.742188 46.3732 0.742188 34.9995ZM7.7466 29.0625C9.9933 23.8593 15.1805 20.2237 21.1607 20.2237C24.2995 20.2237 27.1739 21.2243 29.5858 22.892C33.3524 25.5603 35.7973 29.963 35.7973 34.9661C35.7973 37.5678 35.1365 40.0026 33.9471 42.1372C30.0154 42.5041 26.2158 40.9699 24.2995 38.8352C29.3215 35.3664 30.7092 29.0625 29.718 22.9921C23.7378 24.593 18.3854 28.5288 17.4603 35.0662C15.2797 31.8642 11.7774 29.5628 7.7466 29.0625ZM27.3061 26.7611C27.6035 31.8642 24.696 35.9 20.2687 38.1014C22.8457 42.3374 26.9757 44.7389 31.9647 44.939C29.2885 47.8741 25.4228 49.742 21.1607 49.742C20.7312 49.742 20.3347 49.7086 19.9383 49.6753V37.9346C19.9383 33.1317 22.5484 28.5955 27.3061 26.7611ZM17.1299 49.2083C11.0175 47.4405 6.52413 41.737 6.52413 34.9995C6.52413 33.8988 6.65629 32.7981 6.88757 31.7975H6.95365C12.6695 32.3312 17.1629 37.0341 17.1629 43.1712V49.2083H17.1299Z" fill="#86983F"/>
<path fill-rule="evenodd" clip-rule="evenodd" d="M210.872 41.0502H210.475H207.568L204.726 35.2466H201.29V41.0502H198.35V26.5078H206.213C208.592 26.5078 210.541 28.4757 210.541 30.8772C210.541 32.745 209.385 34.346 207.733 34.9797L210.872 41.0502ZM201.323 29.0427V32.9118H205.684C206.742 32.9118 207.601 32.0446 207.601 30.9772C207.601 29.9099 206.742 29.0427 205.684 29.0427H201.323Z" fill="#66513F"/>
<path fill-rule="evenodd" clip-rule="evenodd" d="M210.872 41.0502H210.475H207.568L204.726 35.2466H201.29V41.0502H198.35V26.5078H206.213C208.592 26.5078 210.541 28.4757 210.541 30.8772C210.541 32.745 209.385 34.346 207.733 34.9797L210.872 41.0502ZM201.323 29.0427V32.9118H205.684C206.742 32.9118 207.601 32.0446 207.601 30.9772C207.601 29.9099 206.742 29.0427 205.684 29.0427H201.323Z" fill="#66513F"/>
<path fill-rule="evenodd" clip-rule="evenodd" d="M149.812 33.8138C149.812 29.5445 153.216 26.1758 157.511 26.1758C160.848 26.1758 163.623 28.177 164.713 31.0455L164.846 31.4124H161.608C160.716 29.8781 159.229 28.9108 157.511 28.9108C154.901 28.9108 152.786 31.1122 152.786 33.8138C152.786 36.5155 154.901 38.7502 157.511 38.7502C159.229 38.7502 160.716 37.8163 161.608 36.2487H164.846L164.713 36.6156C163.623 39.484 160.848 41.4853 157.511 41.4853C153.216 41.3852 149.812 38.1165 149.812 33.8138Z" fill="#66513F"/>
<path fill-rule="evenodd" clip-rule="evenodd" d="M149.812 33.8138C149.812 29.5445 153.216 26.1758 157.511 26.1758C160.848 26.1758 163.623 28.177 164.713 31.0455L164.846 31.4124H161.608C160.716 29.8781 159.229 28.9108 157.511 28.9108C154.901 28.9108 152.786 31.1122 152.786 33.8138C152.786 36.5155 154.901 38.7502 157.511 38.7502C159.229 38.7502 160.716 37.8163 161.608 36.2487H164.846L164.713 36.6156C163.623 39.484 160.848 41.4853 157.511 41.4853C153.216 41.3852 149.812 38.1165 149.812 33.8138Z" fill="#66513F"/>
<path fill-rule="evenodd" clip-rule="evenodd" d="M56.0473 41.0502V35.4467L50.5957 26.5078H53.9988L57.5671 32.7784L61.0693 26.5078H64.3733L58.9547 35.48V41.0502H56.0473Z" fill="#66513F"/>
<path fill-rule="evenodd" clip-rule="evenodd" d="M56.0473 41.0502V35.4467L50.5957 26.5078H53.9988L57.5671 32.7784L61.0693 26.5078H64.3733L58.9547 35.48V41.0502H56.0473Z" fill="#66513F"/>
<path fill-rule="evenodd" clip-rule="evenodd" d="M68.3378 26.5078L71.9392 37.2812L75.5405 26.5078H78.6793L73.459 41.0502H70.3202L65.166 26.5078H68.3378Z" fill="#66513F"/>
<path fill-rule="evenodd" clip-rule="evenodd" d="M68.3378 26.5078L71.9392 37.2812L75.5405 26.5078H78.6793L73.459 41.0502H70.3202L65.166 26.5078H68.3378Z" fill="#66513F"/>
<path fill-rule="evenodd" clip-rule="evenodd" d="M98.1397 30.3452C98.1397 31.2457 98.3049 31.5126 101.477 32.2464C103.327 32.68 104.219 32.9802 104.979 33.4805C106.102 34.281 106.697 35.3483 106.697 36.7158C106.697 39.651 104.417 41.352 100.882 41.352C97.3137 41.352 95.034 39.5843 94.8027 36.5157H97.7102C97.9745 38.1167 99.0318 38.8838 101.047 38.8838C102.831 38.8838 103.79 38.0833 103.79 36.9159C103.79 36.2822 103.525 35.882 102.765 35.4817C102.468 35.3816 102.038 35.2149 101.543 35.0815L101.014 34.948L100.717 34.8813C98.8336 34.381 97.4129 33.9141 96.7851 33.4805C95.7939 32.8134 95.2653 31.7794 95.2653 30.512C95.2653 27.8103 97.4459 26.1426 100.684 26.1426C103.856 26.1426 105.838 27.6769 106.102 30.4452H103.228C102.93 29.1444 102.071 28.5774 100.552 28.5774C98.9657 28.6108 98.1397 29.3112 98.1397 30.3452Z" fill="#66513F"/>
<path fill-rule="evenodd" clip-rule="evenodd" d="M98.1397 30.3452C98.1397 31.2457 98.3049 31.5126 101.477 32.2464C103.327 32.68 104.219 32.9802 104.979 33.4805C106.102 34.281 106.697 35.3483 106.697 36.7158C106.697 39.651 104.417 41.352 100.882 41.352C97.3137 41.352 95.034 39.5843 94.8027 36.5157H97.7102C97.9745 38.1167 99.0318 38.8838 101.047 38.8838C102.831 38.8838 103.79 38.0833 103.79 36.9159C103.79 36.2822 103.525 35.882 102.765 35.4817C102.468 35.3816 102.038 35.2149 101.543 35.0815L101.014 34.948L100.717 34.8813C98.8336 34.381 97.4129 33.9141 96.7851 33.4805C95.7939 32.8134 95.2653 31.7794 95.2653 30.512C95.2653 27.8103 97.4459 26.1426 100.684 26.1426C103.856 26.1426 105.838 27.6769 106.102 30.4452H103.228C102.93 29.1444 102.071 28.5774 100.552 28.5774C98.9657 28.6108 98.1397 29.3112 98.1397 30.3452Z" fill="#66513F"/>
<path fill-rule="evenodd" clip-rule="evenodd" d="M176.609 35.2799H170.761V41.0502H167.82V26.5078H170.761V32.6449H176.609V26.5078H179.549V41.0502H176.609V35.2799Z" fill="#66513F"/>
<path fill-rule="evenodd" clip-rule="evenodd" d="M176.609 35.2799H170.761V41.0502H167.82V26.5078H170.761V32.6449H176.609V26.5078H179.549V41.0502H176.609V35.2799Z" fill="#66513F"/>
<path fill-rule="evenodd" clip-rule="evenodd" d="M187.083 32.745H192.535V35.2799H187.083V38.4486H194.682V41.0502H184.176V26.5078H194.682V29.1094H187.083V32.745Z" fill="#66513F"/>
<path fill-rule="evenodd" clip-rule="evenodd" d="M187.083 32.745H192.535V35.2799H187.083V38.4486H194.682V41.0502H184.176V26.5078H194.682V29.1094H187.083V32.745Z" fill="#66513F"/>
<path fill-rule="evenodd" clip-rule="evenodd" d="M147.238 33.7786C147.238 38.0479 143.835 41.4167 139.54 41.4167C135.179 41.4167 131.809 38.1147 131.809 33.8453C131.809 29.576 135.212 26.2073 139.54 26.2073C143.868 26.1739 147.238 29.5093 147.238 33.7786ZM134.815 33.7786C134.815 36.5137 136.93 38.715 139.54 38.715C142.117 38.715 144.232 36.5137 144.232 33.7786C144.232 31.077 142.117 28.8756 139.54 28.8756C136.93 28.8756 134.815 31.077 134.815 33.7786Z" fill="#66513F"/>
<path fill-rule="evenodd" clip-rule="evenodd" d="M147.238 33.7786C147.238 38.0479 143.835 41.4167 139.54 41.4167C135.179 41.4167 131.809 38.1147 131.809 33.8453C131.809 29.576 135.212 26.2073 139.54 26.2073C143.868 26.1739 147.238 29.5093 147.238 33.7786ZM134.815 33.7786C134.815 36.5137 136.93 38.715 139.54 38.715C142.117 38.715 144.232 36.5137 144.232 33.7786C144.232 31.077 142.117 28.8756 139.54 28.8756C136.93 28.8756 134.815 31.077 134.815 33.7786Z" fill="#66513F"/>
<path fill-rule="evenodd" clip-rule="evenodd" d="M129.659 41.0502H129.262H126.355L123.513 35.2466H120.077V41.0502H117.137V26.5078H125C127.412 26.5078 129.328 28.4757 129.328 30.8772C129.328 32.745 128.172 34.346 126.52 34.9797L129.659 41.0502ZM120.11 29.0427V32.9118H124.472C125.529 32.9118 126.388 32.0446 126.388 30.9772C126.388 29.9099 125.529 29.0427 124.472 29.0427H120.11Z" fill="#66513F"/>
<path fill-rule="evenodd" clip-rule="evenodd" d="M129.659 41.0502H129.262H126.355L123.513 35.2466H120.077V41.0502H117.137V26.5078H125C127.412 26.5078 129.328 28.4757 129.328 30.8772C129.328 32.745 128.172 34.346 126.52 34.9797L129.659 41.0502ZM120.11 29.0427V32.9118H124.472C125.529 32.9118 126.388 32.0446 126.388 30.9772C126.388 29.9099 125.529 29.0427 124.472 29.0427H120.11Z" fill="#66513F"/>
<path fill-rule="evenodd" clip-rule="evenodd" d="M84.4952 32.745H89.9137V35.2799H84.4952V38.4486H92.0943V41.0502H81.5547V26.5078H92.0943V29.1094H84.4952V32.745Z" fill="#66513F"/>
<path fill-rule="evenodd" clip-rule="evenodd" d="M84.4952 32.745H89.9137V35.2799H84.4952V38.4486H92.0943V41.0502H81.5547V26.5078H92.0943V29.1094H84.4952V32.745Z" fill="#66513F"/>
<path d="M123.746 50.7235H125.398L124.572 48.3887L123.746 50.7235ZM125.828 51.8909H123.35L122.821 53.3585H121.367L123.878 46.6543H125.332L127.81 53.3585H126.356L125.828 51.8909Z" fill="#66513F"/>
<path d="M123.746 50.7235H125.398L124.572 48.3887L123.746 50.7235ZM125.828 51.8909H123.35L122.821 53.3585H121.367L123.878 46.6543H125.332L127.81 53.3585H126.356L125.828 51.8909Z" fill="#66513F"/>
<path d="M134.683 53.3252H133.328V46.6211H134.683L137.359 50.7903V46.6211H138.747V53.3252H137.359L134.683 49.156V53.3252Z" fill="#66513F"/>
<path d="M134.683 53.3252H133.328V46.6211H134.683L137.359 50.7903V46.6211H138.747V53.3252H137.359L134.683 49.156V53.3252Z" fill="#66513F"/>
<path fill-rule="evenodd" clip-rule="evenodd" d="M101.444 49.5229H104.055V50.6569H101.444V53.3252H100.09V46.6211H104.748V47.8218H101.444V49.5229Z" fill="#66513F"/>
<path fill-rule="evenodd" clip-rule="evenodd" d="M101.444 49.5229H104.055V50.6569H101.444V53.3252H100.09V46.6211H104.748V47.8218H101.444V49.5229Z" fill="#66513F"/>
<path fill-rule="evenodd" clip-rule="evenodd" d="M115.849 53.3252H115.651H114.33L113.008 50.6569H111.62V53.3252H110.266V46.6211H113.702C114.792 46.6211 115.717 47.5216 115.717 48.6557C115.717 49.5229 115.189 50.2567 114.429 50.5569L115.849 53.3252ZM111.653 47.7885V49.5896H113.47C113.966 49.5896 114.363 49.1893 114.363 48.7224C114.363 48.2221 113.966 47.8218 113.47 47.8218H111.653V47.7885Z" fill="#66513F"/>
<path fill-rule="evenodd" clip-rule="evenodd" d="M115.849 53.3252H115.651H114.33L113.008 50.6569H111.62V53.3252H110.266V46.6211H113.702C114.792 46.6211 115.717 47.5216 115.717 48.6557C115.717 49.5229 115.189 50.2567 114.429 50.5569L115.849 53.3252ZM111.653 47.7885V49.5896H113.47C113.966 49.5896 114.363 49.1893 114.363 48.7224C114.363 48.2221 113.966 47.8218 113.47 47.8218H111.653V47.7885Z" fill="#66513F"/>
<path fill-rule="evenodd" clip-rule="evenodd" d="M144.264 49.9906C144.264 48.0227 145.817 46.4551 147.832 46.4551C149.385 46.4551 150.64 47.389 151.136 48.6898L151.202 48.8232H149.715C149.319 48.1228 148.625 47.6892 147.832 47.6892C146.643 47.6892 145.651 48.6898 145.651 49.9572C145.651 51.1913 146.643 52.2253 147.832 52.2253C148.625 52.2253 149.319 51.7917 149.715 51.0913H151.202L151.136 51.2247C150.64 52.5589 149.352 53.4594 147.832 53.4594C145.817 53.4928 144.264 51.9918 144.264 49.9906Z" fill="#66513F"/>
<path fill-rule="evenodd" clip-rule="evenodd" d="M144.264 49.9906C144.264 48.0227 145.817 46.4551 147.832 46.4551C149.385 46.4551 150.64 47.389 151.136 48.6898L151.202 48.8232H149.715C149.319 48.1228 148.625 47.6892 147.832 47.6892C146.643 47.6892 145.651 48.6898 145.651 49.9572C145.651 51.1913 146.643 52.2253 147.832 52.2253C148.625 52.2253 149.319 51.7917 149.715 51.0913H151.202L151.136 51.2247C150.64 52.5589 149.352 53.4594 147.832 53.4594C145.817 53.4928 144.264 51.9918 144.264 49.9906Z" fill="#66513F"/>
<path fill-rule="evenodd" clip-rule="evenodd" d="M158.073 49.5229H160.551V50.6569H158.073V52.1245H161.344V53.3252H156.719V46.6211H161.344V47.8218H158.073V49.5229Z" fill="#66513F"/>
<path fill-rule="evenodd" clip-rule="evenodd" d="M158.073 49.5229H160.551V50.6569H158.073V52.1245H161.344V53.3252H156.719V46.6211H161.344V47.8218H158.073V49.5229Z" fill="#66513F"/>
</svg>
