<svg width="220" height="70" viewBox="0 0 220 70" fill="none" xmlns="http://www.w3.org/2000/svg">
<path d="M136.978 27.1682H148.28L134.895 44.6723H123.589L136.978 27.1682ZM136.128 25.4582L121.9 44.072C121.56 44.5157 121.504 45.0764 121.753 45.5723C121.994 46.0628 122.503 46.3805 123.042 46.3805H135.744L150.087 27.6254C150.401 27.2051 150.446 26.6597 150.223 26.1989C149.994 25.7399 149.527 25.4582 149 25.4582H136.128ZM95.4936 16.3592C95.5665 16.2368 95.7024 16.1549 95.8545 16.1549H103.267L104.332 10.0367C104.368 9.8468 104.534 9.7127 104.732 9.7127L111.67 9.7073C111.796 9.7073 111.9 9.746 111.973 9.8279C112.048 9.9224 112.086 10.0484 112.068 10.16L111.378 14.1191L143.992 14.1425C144.168 14.1425 144.294 14.2496 144.356 14.3513C144.394 14.4269 144.446 14.5808 144.339 14.7266L141.394 18.5714L165.565 18.5651C165.705 18.5651 165.806 18.6533 165.846 18.7325C165.884 18.7892 165.916 18.908 165.842 19.0169L145.754 45.3104C145.525 45.5966 145.535 46.3238 145.694 46.6352C145.86 46.9484 146.433 47.3948 146.792 47.3948L160.923 47.4092C161.086 47.4092 161.183 47.4938 161.227 47.5442C161.303 47.6324 161.337 47.7503 161.319 47.8646L160.244 54.0089C160.21 54.1952 160.042 54.3302 159.843 54.3302H106.084L105.2 54.3248C105.266 54.629 105.292 54.9449 105.292 55.2671C105.292 58.031 103.052 60.272 100.283 60.272C97.5168 60.272 95.2749 58.031 95.2749 55.2671C95.2749 52.5023 97.5168 50.264 100.283 50.264C102.173 50.264 103.82 51.3107 104.676 52.856L126.586 24.1397C126.938 23.3981 126.763 23.1326 126.573 22.6961C126.432 22.3667 125.903 22.0283 125.327 22.0337H109.991L106.072 44.4041C106.035 44.5796 105.866 44.7029 105.678 44.7029H98.7364C98.5753 44.7029 98.4763 44.6165 98.4295 44.5652C98.3872 44.5148 98.3107 44.4041 98.3404 44.2448L102.597 19.9628L85.283 53.8937C85.1273 54.1664 84.8393 54.3419 84.5144 54.3419L78.6175 54.3707C78.4069 54.3707 78.2341 54.2204 78.2152 54.0404L76.5889 29.3912L63.797 53.9C63.644 54.17 63.3488 54.3446 63.032 54.3446L57.0506 54.341C56.8454 54.341 56.6708 54.1898 56.6537 53.9954L52.7521 16.5779C52.7431 16.4609 52.7836 16.3457 52.8538 16.2665C52.9267 16.1936 53.0311 16.154 53.1571 16.154H61.1969C61.4165 16.154 61.601 16.3322 61.601 16.5671L62.807 40.9778L74.6314 16.3646C74.6953 16.2368 74.8384 16.154 74.9887 16.154L82.3184 16.1225C82.5209 16.1225 82.7018 16.2755 82.7144 16.4555L83.906 41.0552L95.4936 16.3592ZM104.391 8C103.563 8 102.859 8.5913 102.711 9.4121L101.828 14.4431H95.5935C94.9572 14.4431 94.3884 14.786 94.0644 15.38L85.2884 34.0937L84.4172 16.0019C84.3425 15.1262 83.6009 14.4431 82.7144 14.4431H74.7349C74.0977 14.4431 73.51 14.7977 73.2058 15.3836L64.1822 34.1684L63.2912 16.1477C63.2912 15.2063 62.5244 14.444 61.5848 14.444H52.7089C52.2238 14.444 51.7738 14.633 51.448 14.9759C51.133 15.3215 50.971 15.803 51.0043 16.3061L54.9832 54.521C55.0786 55.3859 55.8094 56.0384 56.6825 56.0384L63.2804 56.0411C64.0904 56.0411 64.8276 55.5992 65.2092 54.881L75.2857 35.5814L76.5277 54.521C76.6276 55.3859 77.3557 56.0384 78.2233 56.0384L84.7727 56.0411C85.5791 56.0411 86.3234 55.5938 86.7041 54.872L98.9497 30.869L96.5781 44.4059C96.4881 44.9045 96.6276 45.4121 96.9489 45.8054C97.272 46.1897 97.7509 46.4129 98.2558 46.4129H106.017C106.824 46.4129 107.51 45.8513 107.69 45.0431L111.424 23.7392H124.757L104.608 50.1047C103.402 49.0967 101.876 48.5468 100.298 48.5468C96.5925 48.5468 93.5676 51.5654 93.5676 55.2725C93.5676 58.9823 96.5925 62 100.298 62C103.703 62 106.601 59.3999 106.992 56.0402L160.187 56.0375C161.025 56.0375 161.729 55.4426 161.866 54.6236L163.084 47.6999C163.168 47.2022 163.027 46.6919 162.706 46.3094C162.385 45.9269 161.909 45.7073 161.401 45.7073L147.605 45.6947L167.719 19.3814C168.061 18.8711 168.091 18.2555 167.809 17.7263C167.532 17.1908 166.979 16.8551 166.374 16.8551H144.85L146.215 15.074C146.573 14.5394 146.608 13.8887 146.306 13.3199C146.006 12.7619 145.429 12.4073 144.803 12.4073H113.408L113.839 9.9935C113.92 9.4994 113.77 8.9756 113.442 8.5886C113.122 8.2088 112.663 8 112.149 8H104.391Z" fill="url(#paint0_linear_2702_62797)"/>
<defs>
<linearGradient id="paint0_linear_2702_62797" x1="109.5" y1="62" x2="109.5" y2="8" gradientUnits="userSpaceOnUse">
<stop stop-color="#161998"/>
<stop offset="0.129" stop-color="#441E93"/>
<stop offset="0.266" stop-color="#6E228F"/>
<stop offset="0.407" stop-color="#90258C"/>
<stop offset="0.549" stop-color="#AB2889"/>
<stop offset="0.694" stop-color="#BE2A87"/>
<stop offset="0.842" stop-color="#C92B86"/>
<stop offset="1" stop-color="#CD2B86"/>
</linearGradient>
</defs>
</svg>
