<svg width="50" height="51" viewBox="0 0 50 51" fill="none" xmlns="http://www.w3.org/2000/svg">
<path d="M50 25.5C50 39.3071 38.8071 50.5 25 50.5C11.1929 50.5 9.78513e-07 39.3071 2.18557e-06 25.5C3.39263e-06 11.6929 11.1929 0.499997 25 0.499998C38.8071 0.499999 50 11.6929 50 25.5Z" fill="#EF404B"/>
<path d="M20.75 34L29.25 25.5L20.75 17" stroke="white" stroke-width="2"/>
<path d="M25 2.5C37.7026 2.5 48 12.7975 48 25.5L52 25.5C52 10.5883 39.9117 -1.5 25 -1.5L25 2.5ZM2 25.5C2 12.7974 12.2975 2.5 25 2.5L25 -1.5C10.0883 -1.5 -2 10.5883 -2 25.5L2 25.5ZM25 48.5C12.2975 48.5 2 38.2025 2 25.5L-2 25.5C-2 40.4117 10.0883 52.5 25 52.5L25 48.5ZM25 52.5C39.9117 52.5 52 40.4117 52 25.5L48 25.5C48 38.2025 37.7025 48.5 25 48.5L25 52.5Z" fill="#EF404B"/>
</svg>
