<svg width="245" height="78" viewBox="0 0 245 78" fill="none" xmlns="http://www.w3.org/2000/svg">
<path d="M30.5855 49.3014L58.8643 22.0791L2.22729 37.8164L30.5855 49.3014Z" fill="#004094"/>
<path d="M30.5854 49.3014L58.8642 22.0791L18.0347 23.3905L30.5854 49.3014Z" fill="#70B52C"/>
<path d="M124.875 34.8766C124.597 36.347 123.564 37.1815 120.943 37.1815C119.831 37.1815 118.6 36.9431 118.242 36.8636L118.441 35.7906C118.838 33.5652 119.751 32.2935 122.254 32.2935C124.518 32.2935 125.153 33.3665 124.875 34.8766ZM123.008 28.836C117.805 28.836 114.509 31.2602 113.794 35.274L112.602 42.1094C111.887 46.1232 114.707 48.5473 120.268 48.5473C124.478 48.5473 127.814 46.7987 128.251 44.1759C128.41 43.2618 128.211 42.2683 127.655 41.1953C127.218 43.3811 124.518 44.9309 120.903 44.9309C118.163 44.9309 117.051 43.8182 117.448 41.5927L117.686 40.2813C118.719 40.7185 119.831 40.9569 120.983 40.9569C126.742 40.9569 129.085 38.0558 129.641 34.9561C130.277 31.2205 128.211 28.836 123.008 28.836ZM145.131 35.7111L144.098 41.6325C143.661 44.0169 142.231 45.0104 140.484 45.0104C138.498 45.0104 136.75 43.7785 137.068 41.9901L138.697 32.6909C138.697 32.6909 140.206 32.2537 141.834 32.2537C144.853 32.2935 145.528 33.4459 145.131 35.7111ZM142.867 28.836C141.318 28.836 139.332 29.5116 137.426 29.5116C136.433 29.5116 135.479 29.2732 134.645 28.836L130.277 53.5546C131.945 52.8393 133.652 52.124 135.4 51.4881L135.797 49.2229C135.956 48.3089 135.877 47.1167 135.877 47.1167C135.877 47.1167 137.307 48.5473 140.325 48.5473C144.217 48.5473 148.03 46.1629 148.745 42.2286L149.976 35.1945C150.691 31.141 148.07 28.836 142.867 28.836ZM74.3545 32.3332H68.2777L69.4692 25.5773H78.6837C81.4242 25.5773 82.0596 21.9609 82.0596 21.9609H65.2195L60.9697 46.0834C60.5328 48.4679 65.4578 48.4679 65.4578 48.4679L67.6422 35.9893H74.275C77.2935 35.9893 78.1276 33.8831 78.4453 31.9755C78.4453 31.9358 76.7375 32.3332 74.3545 32.3332ZM89.2485 44.5335C89.2485 44.5335 87.6598 45.2091 85.7533 45.2091C83.688 45.2091 82.6157 44.3746 82.8937 42.7055C83.4497 39.4468 89.1293 40.5197 90.3208 38.5725L89.2485 44.5335ZM88.3747 28.836C85.3959 28.836 80.9475 29.7898 80.3915 32.9691C80.2326 33.9626 80.3518 35.0753 81.1461 36.506C81.7022 33.4459 84.6413 32.3729 87.6995 32.3729C90.5194 32.3729 91.0358 33.5254 90.7975 34.8766C88.8116 37.7777 79.3191 35.9893 78.1276 42.785C77.373 47.1167 80.7887 48.5076 84.5618 48.5076C86.6271 48.5076 88.5733 47.832 90.4003 47.832C91.3138 47.832 92.2273 47.9512 93.1011 48.4281L95.4444 35.0356C96.199 31.1012 93.7763 28.836 88.3747 28.836ZM113.277 32.2537C113.714 29.7501 111.53 28.836 108.948 28.836C106.804 28.836 105.056 29.5911 103.428 29.5911C102.633 29.5911 101.759 29.3924 100.727 28.8758L97.7083 45.9642C97.2714 48.3486 102.037 48.3486 102.037 48.3486L104.738 32.9293C105.135 32.8498 106.287 32.5319 107.558 32.5319C109.663 32.5319 111.331 33.5652 110.934 35.8701C111.331 35.3932 112.96 34.042 113.277 32.2537ZM214.954 28.836C211.975 28.836 207.527 29.7898 206.971 32.9691C206.812 33.9626 206.931 35.0753 207.725 36.506C208.281 33.4459 211.221 32.3729 214.279 32.3729C217.099 32.3729 217.615 33.5254 217.377 34.8766C216.702 35.8304 215.192 36.2675 213.445 36.7047C216.463 36.4662 219.283 36.3072 221.865 36.188L222.063 35.115C222.778 31.1012 220.356 28.836 214.954 28.836ZM228.696 20.1726L225.916 35.9496C227.664 35.8701 229.292 35.7906 230.682 35.7509L233.025 22.5173C233.423 20.2123 228.974 20.1726 228.696 20.1726ZM163.52 28.836C157.523 28.836 154.306 31.2602 153.591 35.274L152.399 42.1094C152.121 43.6195 152.32 44.9309 152.955 45.9245C154.703 45.4873 156.45 45.0502 158.198 44.613C157.125 44.0567 156.967 43.0234 157.245 41.5133L158.238 35.7906C158.635 33.5652 159.548 32.2935 162.924 32.2935C166.3 32.2935 166.737 33.5652 166.38 35.7906L165.387 41.5133C165.268 42.1094 165.148 42.6657 164.91 43.1029C166.618 42.7452 168.326 42.4273 170.034 42.1094V42.0696L171.225 35.2343C171.9 31.2205 169.517 28.836 163.52 28.836ZM184.53 28.836C182.386 28.836 180.638 29.5911 179.01 29.5911C178.215 29.5911 177.342 29.3924 176.309 28.8758L174.085 41.394C175.713 41.1159 177.342 40.8377 178.97 40.5992L180.32 32.9293C180.718 32.8498 181.869 32.5319 183.14 32.5319C185.245 32.5319 186.914 33.5652 186.477 35.8701C186.834 35.433 188.462 34.0818 188.78 32.2935C189.297 29.7898 187.112 28.836 184.53 28.836ZM196.366 28.836C196.922 25.7363 193.149 25.7363 192.196 25.7363L189.853 39.0493C191.481 38.8506 193.07 38.6519 194.658 38.4532L195.492 33.7241H200.259C202.92 33.7241 203.595 30.1475 203.595 30.1475H196.128L196.366 28.836Z" fill="#004094"/>
<path d="M173.33 45.925C172.893 48.3094 177.659 48.3094 177.659 48.3094L179.009 40.56C177.381 40.7985 175.752 41.0766 174.124 41.3548L173.33 45.925ZM196.961 44.9315C194.181 44.9315 193.744 43.5008 194.181 41.0766L194.658 38.4538C193.069 38.6525 191.48 38.8512 189.852 39.0499L189.296 42.1099C188.581 46.1634 190.885 48.5479 195.691 48.5479C200.059 48.5479 202.522 46.6006 202.919 44.3751C203.118 43.2624 202.76 42.2291 201.966 41.1164C201.45 44.0174 199.106 44.9315 196.961 44.9315ZM216.86 38.573L215.827 44.5341C215.827 44.5341 214.239 45.2097 212.332 45.2097C210.267 45.2097 209.194 44.3751 209.472 42.7457C210.029 39.4473 215.668 40.4805 216.86 38.573ZM204.746 42.7457C203.991 47.0775 207.407 48.4684 211.18 48.4684C213.246 48.4684 215.192 47.8325 217.019 47.8325C217.932 47.8325 218.846 47.9518 219.72 48.4286L221.904 36.1488C219.322 36.3078 216.502 36.4667 213.484 36.6654C209.989 37.5 205.54 38.2153 204.746 42.7457ZM130.117 54.35C129.641 57.1318 134.049 57.0921 134.367 57.0921L135.36 51.4489C133.612 52.1245 131.904 52.8001 130.236 53.5154L130.117 54.35ZM160.66 45.011C159.508 45.011 158.714 44.852 158.158 44.5738C156.41 44.9712 154.663 45.4084 152.915 45.8852C153.987 47.5544 156.291 48.4684 160.024 48.4684C165.982 48.4684 169.239 46.0839 169.954 42.0702C168.246 42.3881 166.538 42.7457 164.83 43.0637C164.274 44.3354 163.122 45.011 160.66 45.011ZM229.689 41.3946L230.682 35.7117C229.252 35.7514 227.663 35.8309 225.915 35.9104L224.724 42.547C224.168 45.6071 225.081 48.2697 228.02 48.2697C228.934 48.2697 230.086 48.1107 231.317 46.7993C228.775 46.839 229.331 43.3816 229.689 41.3946Z" fill="#70B52C"/>
<path d="M234.932 22.2391L235.289 22.1994C235.289 22.3583 235.329 22.4776 235.408 22.557C235.488 22.6365 235.567 22.716 235.686 22.7955C235.805 22.8352 235.964 22.875 236.123 22.875C236.282 22.875 236.401 22.8352 236.52 22.7955C236.639 22.7557 236.719 22.6763 236.759 22.5968C236.798 22.5173 236.838 22.4378 236.838 22.3583C236.838 22.2789 236.798 22.1994 236.759 22.1199C236.719 22.0404 236.6 22.0007 236.481 21.9609C236.401 21.9212 236.242 21.8815 235.964 21.802C235.686 21.7225 235.527 21.6827 235.408 21.6033C235.249 21.5238 235.17 21.4443 235.09 21.3251C235.011 21.2059 234.971 21.0866 234.971 20.9674C234.971 20.8085 235.011 20.6892 235.09 20.57C235.17 20.4508 235.289 20.3316 235.448 20.2918C235.607 20.2123 235.805 20.1726 235.964 20.1726C236.163 20.1726 236.361 20.2123 236.52 20.2918C236.679 20.3713 236.798 20.4508 236.917 20.6098C236.997 20.729 237.037 20.8879 237.076 21.0866L236.719 21.1264C236.719 20.9277 236.639 20.8085 236.52 20.6892C236.401 20.6097 236.242 20.5303 236.004 20.5303C235.766 20.5303 235.607 20.57 235.488 20.6495C235.369 20.729 235.329 20.8482 235.329 20.9674C235.329 21.0866 235.369 21.1661 235.448 21.2456C235.527 21.3251 235.726 21.3648 236.044 21.4443C236.361 21.5238 236.56 21.5635 236.679 21.643C236.838 21.7225 236.957 21.802 237.037 21.9212C237.116 22.0404 237.156 22.1596 237.156 22.3186C237.156 22.4776 237.116 22.6365 237.037 22.7557C236.957 22.875 236.838 22.9942 236.639 23.0737C236.481 23.1531 236.282 23.1929 236.083 23.1929C235.805 23.1929 235.607 23.1531 235.408 23.0737C235.249 22.9942 235.09 22.875 234.971 22.716C234.971 22.6365 234.932 22.4378 234.932 22.2391Z" fill="#231815"/>
<path d="M237.752 23.1933V20.2922H238.347L239.023 22.3587C239.102 22.5575 239.142 22.6767 239.181 22.7959C239.221 22.6767 239.261 22.5177 239.34 22.319L240.055 20.2922H240.572V23.1933H240.214V20.7691L239.38 23.1933H239.023L238.188 20.7294V23.1933H237.752Z" fill="#231815"/>
</svg>
