<svg width="747" height="1069" viewBox="0 0 747 1069" fill="none" xmlns="http://www.w3.org/2000/svg">
<path d="M757.027 21.2041C629.949 -33.7907 482.35 24.6443 427.355 151.722L404.305 204.985L351.042 181.935C223.964 126.94 76.3643 185.375 21.3695 312.453C-33.6252 439.531 24.8101 587.13 151.888 642.125L205.151 665.176L182.101 718.438C127.106 845.516 185.542 993.116 312.62 1048.11C439.698 1103.11 587.298 1044.67 642.292 917.592L665.343 864.33L718.605 887.38C845.684 942.375 993.283 883.94 1048.28 756.861C1103.27 629.783 1044.84 482.184 917.759 427.189L864.496 404.139L887.546 350.876C942.541 223.798 884.106 76.199 757.027 21.2041Z" fill="#EF404B"/>
</svg>
