<svg width="20" height="14" viewBox="0 0 20 14" fill="none" xmlns="http://www.w3.org/2000/svg">
<path d="M1.49992 0.499878C1.30339 0.499878 1.11696 0.541208 0.94518 0.609219L9.52346 8.06248C9.82759 8.32668 10.1887 8.32651 10.4922 8.06248L19.0548 0.609219C18.8831 0.541035 18.6966 0.499878 18.5001 0.499878H1.49992ZM0.0155206 1.78896C0.00610351 1.85732 0 1.92882 0 1.99998V12.0002C0 12.2052 0.0432482 12.4006 0.117189 12.5782L6.0548 7.03127L0.0158483 1.78877L0.0155206 1.78896ZM19.9846 1.78896L13.9609 7.03147L19.8828 12.5865C19.9585 12.4069 20 12.2082 20 12.0005V2.00035C20 1.92938 19.9938 1.8577 19.9845 1.78934L19.9846 1.78896ZM12.8202 8.01586L11.4764 9.18776C10.6402 9.91532 9.37515 9.91411 8.53875 9.18776L7.19489 8.02372L1.34345 13.4926C1.39402 13.4976 1.44773 13.5002 1.4997 13.5002H18.5C18.5494 13.5002 18.6003 13.4969 18.6484 13.4926L12.8202 8.01568L12.8202 8.01586Z" fill="#111F2D"/>
</svg>
