<svg width="375" height="240" viewBox="0 0 375 240" fill="none" xmlns="http://www.w3.org/2000/svg">
<path d="M598.567 18.069C487.997 -29.7817 359.572 21.0623 311.721 131.632L291.665 177.976L245.321 157.92C134.751 110.069 6.3259 160.913 -41.5247 271.483C-89.3753 382.053 -38.5311 510.478 72.039 558.329L118.383 578.385L98.3269 624.729C50.4763 735.299 101.321 863.724 211.891 911.575C322.461 959.425 450.886 908.581 498.737 798.011L518.793 751.668L565.136 771.724C675.706 819.574 804.132 768.73 851.982 658.16C899.833 547.59 848.989 419.165 738.419 371.314L692.075 351.259L712.131 304.915C759.981 194.345 709.137 65.9198 598.567 18.069Z" fill="#EF404B"/>
</svg>
