<svg width="907" height="367" viewBox="0 0 907 367" fill="none" xmlns="http://www.w3.org/2000/svg">
<path d="M1059.87 29.1237C881.85 -47.9189 675.077 33.943 598.034 211.968L565.743 286.584L491.127 254.293C313.102 177.25 106.329 259.112 29.2866 437.136C-47.7559 615.161 34.1065 821.934 212.131 898.976L286.748 931.268L254.457 1005.88C177.414 1183.91 259.276 1390.68 437.301 1467.72C615.326 1544.77 822.099 1462.9 899.142 1284.88L931.433 1210.26L1006.05 1242.55C1184.07 1319.6 1390.85 1237.74 1467.89 1059.71C1544.93 881.687 1463.07 674.914 1285.04 597.871L1210.43 565.58L1242.72 490.964C1319.76 312.939 1237.9 106.166 1059.87 29.1237Z" fill="#EF404B"/>
</svg>
