<svg width="180" height="69" viewBox="0 0 180 69" fill="none" xmlns="http://www.w3.org/2000/svg">
<g clip-path="url(#clip0_1501_98422)">
<path d="M180.422 -0.291016H-0.484375V48.1718H180.422V-0.291016Z" fill="#003D7C"/>
<path fill-rule="evenodd" clip-rule="evenodd" d="M30.5994 38.806L36.8289 20.0746V38.806H46.1417V9.01172H33.5569L27.5162 23.9089L21.4754 9.01172H8.89062V38.806H18.2034V20.0746L24.4958 38.806H30.5994ZM130.838 27.2403C133.732 26.9889 136.627 25.0403 136.627 21.7717V15.046V14.4174C136.312 11.086 133.795 9.26315 130.775 9.01172H106.801V38.806H116.113V27.2403H119.826L125.867 38.806H136.564L129.327 27.2403H130.838ZM128.195 19.5089C128.195 20.1374 128.006 20.7031 126.873 20.7031H116.05V14.8574H126.873C128.195 14.8574 128.195 15.7374 128.195 16.2403V19.5089ZM74.1429 14.8574V9.01172H49.8542V38.806H74.3946V32.9603H59.167V26.5489H74.08V20.7031H59.167V14.8574H74.1429ZM85.7839 14.8574H76.9116V9.01172H103.969V14.8574H95.0967V38.806H85.7839V14.8574ZM166.012 9.01172H146.191C143.234 9.26315 140.717 10.7717 140.339 14.166V33.4003C140.654 36.7946 143.171 38.5546 146.191 38.806H166.012C168.97 38.5546 171.487 36.7946 171.864 33.4003V14.166C171.487 10.7717 168.97 9.26315 166.012 9.01172ZM162.488 31.6403C162.425 31.9546 162.3 32.8346 161.167 32.9603H151.036C149.904 32.8346 149.652 31.9546 149.652 31.6403V16.0517C149.715 15.7374 149.841 14.9831 150.973 14.8574H161.104C162.237 14.9831 162.363 15.6746 162.425 16.0517V31.6403H162.488Z" fill="#003D7C"/>
<path d="M180.422 -0.291016H-0.484375V48.1718H180.422V-0.291016Z" fill="#003D7C"/>
<path fill-rule="evenodd" clip-rule="evenodd" d="M30.5994 38.806L36.8289 20.0746V38.806H46.1417V9.01172H33.5569L27.5162 23.9089L21.4754 9.01172H8.89062V38.806H18.2034V20.0746L24.4958 38.806H30.5994ZM130.838 27.2403C133.732 26.9889 136.627 25.0403 136.627 21.7717V15.046V14.4174C136.312 11.086 133.795 9.26315 130.775 9.01172H106.801V38.806H116.113V27.2403H119.826L125.867 38.806H136.564L129.327 27.2403H130.838ZM128.195 19.5089C128.195 20.1374 128.006 20.7031 126.873 20.7031H116.05V14.8574H126.873C128.195 14.8574 128.195 15.7374 128.195 16.2403V19.5089ZM74.1429 14.8574V9.01172H49.8542V38.806H74.3946V32.9603H59.167V26.5489H74.08V20.7031H59.167V14.8574H74.1429ZM85.7839 14.8574H76.9116V9.01172H103.969V14.8574H95.0967V38.806H85.7839V14.8574ZM166.012 9.01172H146.191C143.234 9.26315 140.717 10.7717 140.339 14.166V33.4003C140.654 36.7946 143.171 38.5546 146.191 38.806H166.012C168.97 38.5546 171.487 36.7946 171.864 33.4003V14.166C171.487 10.7717 168.97 9.26315 166.012 9.01172ZM162.488 31.6403C162.425 31.9546 162.3 32.8346 161.167 32.9603H151.036C149.904 32.8346 149.652 31.9546 149.652 31.6403V16.0517C149.715 15.7374 149.841 14.9831 150.973 14.8574H161.104C162.237 14.9831 162.363 15.6746 162.425 16.0517V31.6403H162.488Z" fill="#FFE500"/>
<path d="M50.9245 62.6289V62.8803C50.9245 63.9489 50.4211 64.0118 49.4143 64.0118C47.9041 64.0118 47.8412 63.5089 47.8412 62.1261V60.6803C47.8412 59.3603 47.967 58.9203 49.4143 58.9203C50.2323 58.9203 50.8615 58.9832 50.9245 59.8003V60.1775H53.4414V59.8003C53.3785 57.0346 52.1829 56.7832 49.666 56.7832C46.9602 56.7832 45.3242 57.2232 45.3242 60.3032V62.6918C45.3242 66.0861 47.149 66.2118 49.666 66.2118C50.7357 66.2118 51.7425 66.2118 52.6234 65.5203C53.4414 64.8289 53.5044 63.8861 53.5044 62.8803V62.6289" fill="#003D7C"/>
<path fill-rule="evenodd" clip-rule="evenodd" d="M59.0397 66.1485H61.1791V62.1256C61.1791 59.9256 60.2353 59.6113 58.0959 59.6113C56.5857 59.6113 55.1384 59.6113 55.1384 61.6228H57.2778C57.2778 61.057 57.5925 60.9313 58.1588 60.9313C59.1026 60.9313 59.1026 61.3085 59.1026 61.937V62.9428H58.9768C58.7251 62.1885 57.8442 62.1885 57.2149 62.1885C55.7047 62.1885 54.8867 62.6913 54.8867 64.1999C54.8867 65.8342 55.7677 66.2113 57.2149 66.2113C57.97 66.2113 58.9139 66.0856 59.1026 65.2056H59.1656L59.0397 66.1485ZM57.8442 63.4456C58.5363 63.4456 58.9768 63.5085 58.9768 64.0113C58.9768 64.7028 58.7251 64.8285 57.8442 64.8285C57.5295 64.8285 56.9003 64.8285 56.9003 64.137C56.9632 63.5713 57.3408 63.4456 57.8442 63.4456Z" fill="#003D7C"/>
<path d="M68.6696 61.497V61.1828C68.6696 59.6113 66.9707 59.6113 65.838 59.6113C64.0132 59.6113 62.6918 59.6742 62.6918 61.7485C62.6918 63.0685 63.1952 63.697 65.838 63.697C66.5931 63.697 66.9707 63.697 66.9707 64.3256C66.9707 64.8285 66.8448 64.8913 65.838 64.8913C65.3346 64.8913 64.7683 64.8913 64.7683 64.137H62.6289C62.6289 66.2742 64.1391 66.2113 65.7751 66.2113C67.4741 66.2113 68.9213 65.897 68.9213 64.0113C68.9213 62.1885 67.9145 62.0628 65.7751 61.9999C64.7054 61.9999 64.6425 61.7485 64.6425 61.4342C64.6425 61.057 64.6425 60.9313 65.7751 60.9313C66.0897 60.9313 66.5931 60.9313 66.6561 61.497" fill="#003D7C"/>
<path d="M72.6316 56.9082H70.4922V66.1482H72.6316V62.5653C72.6316 61.7482 72.8204 61.1825 73.7642 61.1825C74.4564 61.1825 74.6452 61.4968 74.6452 62.1253V66.0853H76.7846V61.6853C76.7846 60.3025 76.1554 59.6111 74.7081 59.6111C73.7013 59.6111 73.0721 59.8625 72.7574 60.8682H72.6945" fill="#003D7C"/>
<path fill-rule="evenodd" clip-rule="evenodd" d="M91.0079 66.1489L92.0776 64.8289L91.0708 63.8861C91.1967 63.5718 91.3225 63.2575 91.3225 63.0061V61.1832H89.3719V62.3775L87.1066 60.3661C86.792 60.1146 86.6032 59.8632 86.6032 59.4232C86.6032 58.7318 86.792 58.6061 87.4213 58.6061C87.9246 58.6061 88.1763 58.6689 88.3651 58.7946C88.491 58.9832 88.5539 59.2346 88.5539 59.7375H90.6933V59.2975C90.6933 57.0975 89.5607 56.7832 87.4842 56.7832C85.4077 56.7832 84.4009 57.1603 84.4009 59.2346C84.4009 59.9889 84.5267 60.3032 85.0931 60.8061C83.7087 60.8061 83.457 62.0632 83.457 63.1946C83.457 65.8975 85.0931 66.1489 87.4842 66.1489C88.491 66.1489 89.6236 66.1489 90.2528 65.3318L91.0079 66.1489ZM88.7427 64.0746C88.3022 64.2632 87.8617 64.2632 87.4842 64.2632C86.3515 64.2632 85.7223 64.2632 85.7223 63.0689C85.7223 62.6289 85.7223 62.0632 86.2886 62.0003L88.7427 64.0746Z" fill="#003D7C"/>
<path d="M103.655 62.6289V62.8803C103.655 63.9489 103.152 64.0118 102.145 64.0118C100.635 64.0118 100.572 63.5089 100.572 62.1261V60.6803C100.572 59.3603 100.698 58.9203 102.145 58.9203C102.963 58.9203 103.592 58.9832 103.655 59.8003V60.1775H106.172V59.8003C106.109 57.0346 104.913 56.7832 102.396 56.7832C99.6907 56.7832 98.0547 57.2232 98.0547 60.3032V62.6918C98.0547 66.0861 99.8795 66.2118 102.396 66.2118C103.466 66.2118 104.473 66.2118 105.354 65.5203C106.172 64.8289 106.235 63.8861 106.235 62.8803V62.6289" fill="#003D7C"/>
<path fill-rule="evenodd" clip-rule="evenodd" d="M111.708 66.1485H113.847V62.1256C113.847 59.9256 112.903 59.6113 110.764 59.6113C109.254 59.6113 107.806 59.6113 107.806 61.6228H109.946C109.946 61.057 110.26 60.9313 110.827 60.9313C111.771 60.9313 111.771 61.3085 111.771 61.937V62.9428H111.645C111.393 62.1885 110.512 62.1885 109.883 62.1885C108.373 62.1885 107.555 62.6913 107.555 64.1999C107.555 65.8342 108.436 66.2113 109.883 66.2113C110.638 66.2113 111.582 66.0856 111.771 65.2056H111.834L111.708 66.1485ZM110.575 63.4456C111.267 63.4456 111.708 63.5085 111.708 64.0113C111.708 64.7028 111.456 64.8285 110.575 64.8285C110.26 64.8285 109.631 64.8285 109.631 64.137C109.631 63.5713 110.072 63.4456 110.575 63.4456Z" fill="#003D7C"/>
<path d="M119.07 62.5028H120.958V61.9999C120.958 60.8056 120.832 59.6113 119.385 59.6113C118.567 59.6113 118.063 59.9256 117.749 60.617H117.686V59.6742H115.609V66.1485H117.749V62.2513C117.749 61.7485 117.875 61.2456 118.567 61.2456C119.133 61.2456 119.133 61.7485 119.133 62.1885" fill="#003D7C"/>
<path d="M125.867 62.5028H127.755V61.9999C127.755 60.8056 127.629 59.6113 126.182 59.6113C125.364 59.6113 124.86 59.9256 124.546 60.617H124.483V59.6742H122.406V66.1485H124.546V62.2513C124.546 61.7485 124.672 61.2456 125.364 61.2456C125.93 61.2456 125.93 61.7485 125.93 62.1885" fill="#003D7C"/>
<path d="M135.241 59.6738H133.038L131.969 64.9538L130.71 59.6738H128.508L130.458 66.1481H131.591C131.528 66.9024 131.339 67.531 130.458 67.531C130.333 67.531 130.207 67.531 130.081 67.531V68.9767C130.333 68.9767 130.584 69.0395 130.836 69.0395C132.661 69.0395 133.29 68.411 133.605 66.7138" fill="#003D7C"/>
</g>
<defs>
<clipPath id="clip0_1501_98422">
<rect width="180" height="69" fill="white"/>
</clipPath>
</defs>
</svg>
