<svg width="93" height="55" viewBox="0 0 93 55" fill="none" xmlns="http://www.w3.org/2000/svg">
<path fill-rule="evenodd" clip-rule="evenodd" d="M74.483 1.35135e-05V41.3513H64.8653V2.06759L74.483 1.35135e-05ZM47.0995 45.2702C49.7554 45.2702 51.9083 47.4484 51.9083 50.1351C51.9083 52.8219 49.7554 55 47.0995 55C44.4438 55 42.2907 52.8219 42.2907 50.1351C42.2907 47.4484 44.4438 45.2702 47.0995 45.2702ZM47.0995 11.7432C55.288 11.7432 61.9402 18.4595 61.9402 26.7568C61.9402 35.0541 55.2878 41.7703 47.0995 41.7703C38.8979 41.7703 32.259 35.0541 32.259 26.7568C32.259 18.4595 38.9112 11.7432 47.0995 11.7432ZM47.0995 31.6216C49.7577 31.6216 51.9083 29.4459 51.9083 26.7568C51.9083 24.0676 49.7577 21.8919 47.0995 21.8919C44.4413 21.8919 42.2907 24.0676 42.2907 26.7568C42.2907 29.4459 44.4413 31.6216 47.0995 31.6216ZM16.8442 31.6216C18.5005 31.6216 19.8497 30.2567 19.8497 28.581C19.8497 26.9054 18.5005 25.5405 16.8442 25.5405H9.63096V31.6216H16.8442ZM9.63096 9.72973V15.8109H14.9741C16.6304 15.8109 17.9796 14.4459 17.9796 12.7703C17.9796 11.0946 16.6304 9.72973 14.9741 9.72973H9.63096ZM25.7003 19.4865C28.0247 21.8108 29.4672 25.0271 29.4539 28.581C29.4539 35.6352 23.8037 41.3513 16.8308 41.3513H0V0H14.9607C21.9336 0 27.5838 5.71622 27.5838 12.7703C27.5838 15.2298 26.9026 17.5406 25.7003 19.4865ZM92.6496 22.0271H87.8543V29.6622C87.8543 31.973 88.589 33.6757 90.5123 33.6757C91.7547 33.6757 92.663 33.3919 92.663 33.3919V40.5541C92.663 40.5541 90.6726 41.7703 87.9744 41.7703H87.8543C87.7339 41.7703 87.627 41.7568 87.5068 41.7568H87.4133C87.3599 41.7568 87.293 41.7432 87.2396 41.7432C81.8698 41.4594 78.2231 38.0405 78.2231 32.1082V6.93243L87.8408 4.86486V12.2973H92.6496V22.0271Z" fill="#34D186"/>
</svg>
