<svg width="130" height="60" viewBox="0 0 130 60" fill="none" xmlns="http://www.w3.org/2000/svg">
<path d="M95.5298 21.298H108.088L93.2158 40.747H80.6538L95.5298 21.298ZM94.5858 19.398L78.7768 40.08C78.3988 40.573 78.3368 41.196 78.6138 41.747C78.8808 42.292 79.4468 42.645 80.0458 42.645H94.1588L110.096 21.806C110.444 21.339 110.495 20.733 110.247 20.221C109.992 19.711 109.473 19.398 108.888 19.398H94.5858ZM49.4368 9.288C49.5178 9.152 49.6688 9.061 49.8378 9.061H58.0738L59.2568 2.263C59.2968 2.052 59.4818 1.903 59.7018 1.903L67.4098 1.897C67.5508 1.897 67.6658 1.94 67.7468 2.031C67.8308 2.136 67.8728 2.276 67.8528 2.4L67.0858 6.799L103.323 6.825C103.519 6.825 103.659 6.944 103.728 7.057C103.77 7.141 103.828 7.312 103.709 7.474L100.437 11.746L127.293 11.739C127.449 11.739 127.561 11.837 127.605 11.925C127.648 11.988 127.683 12.12 127.601 12.241L105.281 41.456C105.027 41.774 105.038 42.582 105.215 42.928C105.399 43.276 106.036 43.772 106.435 43.772L122.135 43.788C122.317 43.788 122.424 43.882 122.473 43.938C122.558 44.036 122.595 44.167 122.575 44.294L121.381 51.121C121.343 51.328 121.156 51.478 120.935 51.478H61.2038L60.2218 51.472C60.2948 51.81 60.3238 52.161 60.3238 52.519C60.3238 55.59 57.8348 58.08 54.7588 58.08C51.6848 58.08 49.1938 55.59 49.1938 52.519C49.1938 49.447 51.6848 46.96 54.7588 46.96C56.8578 46.96 58.6878 48.123 59.6398 49.84L83.9838 17.933C84.3748 17.109 84.1798 16.814 83.9688 16.329C83.8118 15.963 83.2248 15.587 82.5848 15.593H65.5448L61.1908 40.449C61.1488 40.644 60.9618 40.781 60.7528 40.781H53.0398C52.8608 40.781 52.7508 40.685 52.6988 40.628C52.6518 40.572 52.5668 40.449 52.5998 40.272L57.3288 13.292L38.0918 50.993C37.9188 51.296 37.5988 51.491 37.2378 51.491L30.6858 51.523C30.4518 51.523 30.2598 51.356 30.2388 51.156L28.4318 23.768L14.2188 51C14.0488 51.3 13.7208 51.494 13.3688 51.494L6.72276 51.49C6.49476 51.49 6.30076 51.322 6.28176 51.106L1.94676 9.531C1.93676 9.401 1.98176 9.273 2.05976 9.185C2.14076 9.104 2.25676 9.06 2.39676 9.06H11.3298C11.5738 9.06 11.7788 9.258 11.7788 9.519L13.1188 36.642L26.2568 9.294C26.3278 9.152 26.4868 9.06 26.6538 9.06L34.7978 9.025C35.0228 9.025 35.2238 9.195 35.2378 9.395L36.5618 36.728L49.4368 9.288ZM59.3228 0C58.4028 0 57.6208 0.657 57.4558 1.569L56.4748 7.159H49.5478C48.8408 7.159 48.2088 7.54 47.8488 8.2L38.0978 28.993L37.1298 8.891C37.0468 7.918 36.2228 7.159 35.2378 7.159H26.3718C25.6638 7.159 25.0108 7.553 24.6728 8.204L14.6468 29.076L13.6568 9.053C13.6568 8.007 12.8048 7.16 11.7608 7.16H1.89876C1.35976 7.16 0.859761 7.37 0.497761 7.751C0.147761 8.135 -0.0322389 8.67 0.0047611 9.229L4.42576 51.69C4.53176 52.651 5.34376 53.376 6.31376 53.376L13.6448 53.379C14.5448 53.379 15.3638 52.888 15.7878 52.09L26.9838 30.646L28.3638 51.69C28.4748 52.651 29.2838 53.376 30.2478 53.376L37.5248 53.379C38.4208 53.379 39.2478 52.882 39.6708 52.08L53.2768 25.41L50.6418 40.451C50.5418 41.005 50.6968 41.569 51.0538 42.006C51.4128 42.433 51.9448 42.681 52.5058 42.681H61.1298C62.0258 42.681 62.7878 42.057 62.9878 41.159L67.1368 17.488H81.9518L59.5638 46.783C58.2238 45.663 56.5288 45.052 54.7748 45.052C50.6578 45.052 47.2968 48.406 47.2968 52.525C47.2968 56.647 50.6578 60 54.7748 60C58.5578 60 61.7778 57.111 62.2128 53.378L121.318 53.375C122.249 53.375 123.031 52.714 123.183 51.804L124.536 44.111C124.63 43.558 124.473 42.991 124.116 42.566C123.76 42.141 123.231 41.897 122.666 41.897L107.338 41.883L129.686 12.646C130.066 12.079 130.1 11.395 129.786 10.807C129.479 10.212 128.864 9.839 128.192 9.839H104.277L105.793 7.86C106.191 7.266 106.23 6.543 105.895 5.911C105.561 5.291 104.92 4.897 104.224 4.897H69.3418L69.8198 2.215C69.9098 1.666 69.7438 1.084 69.3788 0.654C69.0238 0.232 68.5138 0 67.9428 0H59.3228Z" fill="url(#paint0_linear_1501_76684)"/>
<defs>
<linearGradient id="paint0_linear_1501_76684" x1="64.9991" y1="60" x2="64.9991" y2="0" gradientUnits="userSpaceOnUse">
<stop stop-color="#161998"/>
<stop offset="0.129" stop-color="#441E93"/>
<stop offset="0.266" stop-color="#6E228F"/>
<stop offset="0.407" stop-color="#90258C"/>
<stop offset="0.549" stop-color="#AB2889"/>
<stop offset="0.694" stop-color="#BE2A87"/>
<stop offset="0.842" stop-color="#C92B86"/>
<stop offset="1" stop-color="#CD2B86"/>
</linearGradient>
</defs>
</svg>
