<svg width="768" height="903" viewBox="0 0 768 903" fill="none" xmlns="http://www.w3.org/2000/svg">
<g clip-path="url(#clip0_2_964)">
<rect width="768" height="2549" fill="#111F2D"/>
<mask id="path-1-inside-1_2_964" fill="white">
<path fill-rule="evenodd" clip-rule="evenodd" d="M249.862 710.272L140.575 773.369L222.153 914.667L64.5564 872.439L31.895 994.333L189.49 1036.56L48.1941 1118.14L111.291 1227.43L252.587 1145.85L210.36 1303.44L332.254 1336.1L374.482 1178.51L456.06 1319.81L565.347 1256.71L483.77 1115.41L641.366 1157.64L674.027 1035.75L516.43 993.518L657.728 911.94L594.631 802.653L453.333 884.231L495.561 726.634L373.667 693.972L331.439 851.568L249.862 710.272Z"/>
</mask>
<path d="M140.575 773.369L138.075 769.039L133.744 771.539L136.244 775.869L140.575 773.369ZM249.862 710.272L254.192 707.772L251.692 703.442L247.362 705.942L249.862 710.272ZM222.153 914.667L220.859 919.497L232.518 922.621L226.483 912.167L222.153 914.667ZM64.5564 872.439L65.8505 867.61L61.0209 866.315L59.7268 871.145L64.5564 872.439ZM31.895 994.333L27.0653 993.039L25.7712 997.869L30.6009 999.163L31.895 994.333ZM189.49 1036.56L191.99 1040.89L202.444 1034.86L190.784 1031.73L189.49 1036.56ZM48.1941 1118.14L45.6941 1113.81L41.364 1116.31L43.864 1120.64L48.1941 1118.14ZM111.291 1227.43L106.961 1229.93L109.461 1234.26L113.791 1231.76L111.291 1227.43ZM252.587 1145.85L257.417 1147.14L260.541 1135.48L250.087 1141.52L252.587 1145.85ZM210.36 1303.44L205.53 1302.15L204.236 1306.98L209.066 1308.27L210.36 1303.44ZM332.254 1336.1L330.96 1340.93L335.789 1342.23L337.084 1337.4L332.254 1336.1ZM374.482 1178.51L378.812 1176.01L372.776 1165.55L369.652 1177.21L374.482 1178.51ZM456.06 1319.81L451.73 1322.31L454.23 1326.64L458.56 1324.14L456.06 1319.81ZM565.347 1256.71L567.847 1261.04L572.177 1258.54L569.677 1254.21L565.347 1256.71ZM483.77 1115.41L485.064 1110.58L473.404 1107.46L479.44 1117.91L483.77 1115.41ZM641.366 1157.64L640.071 1162.47L644.901 1163.76L646.195 1158.93L641.366 1157.64ZM674.027 1035.75L678.857 1037.04L680.151 1032.21L675.321 1030.92L674.027 1035.75ZM516.43 993.518L513.93 989.188L503.476 995.224L515.136 998.348L516.43 993.518ZM657.728 911.94L660.228 916.27L664.558 913.77L662.058 909.44L657.728 911.94ZM594.631 802.653L598.961 800.153L596.461 795.823L592.131 798.323L594.631 802.653ZM453.333 884.231L448.503 882.937L445.379 894.597L455.833 888.561L453.333 884.231ZM495.561 726.634L500.391 727.928L501.685 723.098L496.855 721.804L495.561 726.634ZM373.667 693.972L374.961 689.143L370.131 687.848L368.837 692.678L373.667 693.972ZM331.439 851.568L327.109 854.068L333.145 864.522L336.269 852.862L331.439 851.568ZM143.075 777.7L252.362 714.603L247.362 705.942L138.075 769.039L143.075 777.7ZM226.483 912.167L144.905 770.869L136.244 775.869L217.823 917.167L226.483 912.167ZM63.2623 877.269L220.859 919.497L223.447 909.837L65.8505 867.61L63.2623 877.269ZM36.7246 995.627L69.386 873.733L59.7268 871.145L27.0653 993.039L36.7246 995.627ZM190.784 1031.73L33.189 989.504L30.6009 999.163L188.196 1041.39L190.784 1031.73ZM50.6941 1122.47L191.99 1040.89L186.99 1032.23L45.6941 1113.81L50.6941 1122.47ZM115.621 1224.93L52.5242 1115.64L43.864 1120.64L106.961 1229.93L115.621 1224.93ZM250.087 1141.52L108.791 1223.1L113.791 1231.76L255.087 1150.18L250.087 1141.52ZM215.189 1304.74L257.417 1147.14L247.758 1144.55L205.53 1302.15L215.189 1304.74ZM333.548 1331.27L211.654 1298.61L209.066 1308.27L330.96 1340.93L333.548 1331.27ZM369.652 1177.21L327.424 1334.81L337.084 1337.4L379.311 1179.8L369.652 1177.21ZM460.39 1317.31L378.812 1176.01L370.152 1181.01L451.73 1322.31L460.39 1317.31ZM562.847 1252.38L453.56 1315.48L458.56 1324.14L567.847 1261.04L562.847 1252.38ZM479.44 1117.91L561.017 1259.21L569.677 1254.21L488.1 1112.91L479.44 1117.91ZM642.66 1152.81L485.064 1110.58L482.476 1120.24L640.071 1162.47L642.66 1152.81ZM669.197 1034.45L636.536 1156.35L646.195 1158.93L678.857 1037.04L669.197 1034.45ZM515.136 998.348L672.733 1040.58L675.321 1030.92L517.724 988.689L515.136 998.348ZM655.228 907.61L513.93 989.188L518.93 997.849L660.228 916.27L655.228 907.61ZM590.3 805.153L653.397 914.44L662.058 909.44L598.961 800.153L590.3 805.153ZM455.833 888.561L597.131 806.983L592.131 798.323L450.833 879.901L455.833 888.561ZM490.731 725.34L448.503 882.937L458.163 885.525L500.391 727.928L490.731 725.34ZM372.373 698.802L494.267 731.463L496.855 721.804L374.961 689.143L372.373 698.802ZM336.269 852.862L378.497 695.266L368.837 692.678L326.61 850.274L336.269 852.862ZM245.532 712.772L327.109 854.068L335.769 849.068L254.192 707.772L245.532 712.772Z" fill="#8092A3" mask="url(#path-1-inside-1_2_964)"/>
<path d="M122.317 430.477C187.515 392.835 270.883 415.173 308.525 480.371C346.167 545.569 323.829 628.937 258.631 666.579L-32.125 834.447C-97.3229 872.089 -180.691 849.751 -218.333 784.553C-255.975 719.355 -233.637 635.987 -168.439 598.345L122.317 430.477Z" fill="#3840ED"/>
<mask id="path-4-inside-2_2_964" fill="white">
<path fill-rule="evenodd" clip-rule="evenodd" d="M1048.21 419.475C1007.58 363.432 929.214 350.936 873.171 391.565C817.128 432.193 804.632 510.561 845.26 566.604L1036.14 829.904C1076.77 885.947 1155.14 898.443 1211.18 857.815C1267.22 817.186 1279.72 738.818 1239.09 682.775L1048.21 419.475ZM1029.6 956.775L720.259 530.066L543.138 658.469L852.481 1085.18L1029.6 956.775Z"/>
</mask>
<path d="M845.26 566.604L841.212 569.539L845.26 566.604ZM1036.14 829.904L1040.19 826.969L1036.14 829.904ZM720.259 530.066L724.307 527.131L721.372 523.083L717.324 526.018L720.259 530.066ZM1029.6 956.775L1032.54 960.823L1036.58 957.889L1033.65 953.84L1029.6 956.775ZM543.138 658.469L540.204 654.421L536.155 657.356L539.09 661.404L543.138 658.469ZM852.481 1085.18L848.433 1088.11L851.368 1092.16L855.416 1089.23L852.481 1085.18ZM876.106 395.613C929.913 356.605 1005.16 368.602 1044.16 422.41L1052.26 416.541C1010.01 358.262 928.515 345.267 870.236 387.516L876.106 395.613ZM849.309 563.67C810.301 509.862 822.298 434.62 876.106 395.613L870.236 387.516C811.957 429.766 798.963 511.26 841.212 569.539L849.309 563.67ZM1040.19 826.969L849.309 563.67L841.212 569.539L1032.09 832.839L1040.19 826.969ZM1208.24 853.767C1154.44 892.774 1079.2 880.777 1040.19 826.969L1032.09 832.839C1074.34 891.118 1155.84 904.112 1214.11 861.863L1208.24 853.767ZM1235.04 685.71C1274.05 739.517 1262.05 814.759 1208.24 853.767L1214.11 861.863C1272.39 819.614 1285.39 738.119 1243.14 679.84L1235.04 685.71ZM1044.16 422.41L1235.04 685.71L1243.14 679.84L1052.26 416.541L1044.16 422.41ZM716.211 533L1025.55 959.71L1033.65 953.84L724.307 527.131L716.211 533ZM546.073 662.517L723.193 534.114L717.324 526.018L540.204 654.421L546.073 662.517ZM856.53 1082.24L547.186 655.535L539.09 661.404L848.433 1088.11L856.53 1082.24ZM1026.67 952.727L849.547 1081.13L855.416 1089.23L1032.54 960.823L1026.67 952.727Z" fill="white" mask="url(#path-4-inside-2_2_964)"/>
<path d="M521.36 -241.146L28.3497 -198.24L-63.2679 382.802L420.683 624.67L965.561 361.984L842.891 -60.9656L521.36 -241.146Z" fill="#EF404B"/>
</g>
<defs>
<clipPath id="clip0_2_964">
<rect width="768" height="2549" fill="white"/>
</clipPath>
</defs>
</svg>
