<svg width="1920" height="702" viewBox="0 0 1920 702" fill="none" xmlns="http://www.w3.org/2000/svg">
<g clip-path="url(#clip0_2_1563)">
<rect width="1920" height="702" fill="#111F2D"/>
<path d="M2163.67 -233C1583.31 -233 1099.43 292.555 990 990H2333V-217.879C2277.68 -227.845 2221.15 -233 2163.67 -233Z" fill="#EF404B"/>
<mask id="path-2-inside-1_2_1563" fill="white">
<path d="M1802.83 518.298C1712.29 608.839 1565.49 608.839 1474.95 518.298L1049.58 92.9258C959.039 2.38528 959.038 -144.41 1049.58 -234.95C1140.12 -325.491 1286.91 -325.491 1377.46 -234.95L1802.83 190.422C1893.37 280.963 1893.37 427.758 1802.83 518.298Z"/>
</mask>
<path d="M1802.83 190.422L1808.48 184.765L1802.83 190.422ZM1377.46 -234.95L1371.8 -229.294L1377.46 -234.95ZM1049.58 92.9258L1043.92 98.5826L1049.58 92.9258ZM1474.95 518.298L1480.61 512.641L1474.95 518.298ZM1480.61 512.641L1055.24 87.2689L1043.92 98.5826L1469.29 523.955L1480.61 512.641ZM1371.8 -229.294L1797.17 196.079L1808.48 184.765L1383.11 -240.607L1371.8 -229.294ZM1797.17 196.079C1884.59 283.495 1884.59 425.225 1797.17 512.641L1808.48 523.955C1902.15 430.29 1902.15 278.43 1808.48 184.765L1797.17 196.079ZM1055.24 -229.294C1142.65 -316.71 1284.38 -316.71 1371.8 -229.294L1383.11 -240.607C1289.45 -334.272 1137.59 -334.272 1043.92 -240.607L1055.24 -229.294ZM1055.24 87.2689C967.82 -0.147384 967.82 -141.877 1055.24 -229.294L1043.92 -240.607C950.257 -146.943 950.257 4.91794 1043.92 98.5826L1055.24 87.2689ZM1469.29 523.955C1562.96 617.62 1714.82 617.62 1808.48 523.955L1797.17 512.641C1709.75 600.058 1568.02 600.058 1480.61 512.641L1469.29 523.955Z" fill="white" mask="url(#path-2-inside-1_2_1563)"/>
</g>
<defs>
<clipPath id="clip0_2_1563">
<rect width="1920" height="702" fill="white"/>
</clipPath>
</defs>
</svg>
