<svg width="768" height="600" viewBox="0 0 768 600" fill="none" xmlns="http://www.w3.org/2000/svg">
<g clip-path="url(#clip0_2_1967)">
<rect width="768" height="600" fill="#111F2D"/>
<path d="M823.033 393C242.669 393 -241.215 918.555 -350.641 1616H992.359V408.121C937.044 398.155 880.512 393 823.033 393Z" fill="#EF404B"/>
<mask id="path-2-inside-1_2_1967" fill="white">
<path d="M652.187 1205.66C561.647 1296.2 414.851 1296.2 324.311 1205.66L-101.062 780.285C-191.602 689.744 -191.602 542.949 -101.062 452.409C-10.5212 361.868 136.274 361.868 226.814 452.409L652.187 877.781C742.727 968.322 742.728 1115.12 652.187 1205.66Z"/>
</mask>
<path d="M-101.062 780.285L-97.5261 776.749L-101.062 780.285ZM324.311 1205.66L320.775 1209.19L324.311 1205.66ZM327.847 1202.12L-97.5261 776.749L-104.597 783.82L320.775 1209.19L327.847 1202.12ZM223.279 455.944L648.651 881.317L655.723 874.246L230.35 448.873L223.279 455.944ZM648.651 881.317C737.239 969.905 737.239 1113.53 648.652 1202.12L655.723 1209.19C748.216 1116.7 748.216 966.739 655.723 874.246L648.651 881.317ZM-97.5261 455.944C-8.93829 367.356 134.691 367.356 223.279 455.944L230.35 448.873C137.857 356.38 -12.1041 356.38 -104.597 448.873L-97.5261 455.944ZM-97.5261 776.749C-186.114 688.161 -186.114 544.532 -97.5261 455.944L-104.597 448.873C-197.09 541.366 -197.09 691.327 -104.597 783.82L-97.5261 776.749ZM320.775 1209.19C413.269 1301.69 563.23 1301.69 655.723 1209.19L648.652 1202.12C560.064 1290.71 416.434 1290.71 327.847 1202.12L320.775 1209.19Z" fill="white" mask="url(#path-2-inside-1_2_1967)"/>
</g>
<defs>
<clipPath id="clip0_2_1967">
<rect width="768" height="600" fill="white"/>
</clipPath>
</defs>
</svg>
