<svg width="51" height="51" viewBox="0 0 51 51" fill="none" xmlns="http://www.w3.org/2000/svg">
<rect x="0.578125" y="0.52124" width="50" height="50" rx="25" fill="#111F2D" fill-opacity="0.1"/>
<circle cx="25.5781" cy="25.5212" r="21" fill="#111F2D" stroke="white" stroke-width="4"/>
<path d="M25.5 6.28711C20.1818 6.28711 15.3068 8.50302 11.7614 12.0485C8.21591 15.5939 6 20.4689 6 25.7871C6 36.6451 14.642 45.2871 25.5 45.2871C30.8182 45.2871 35.6932 43.0712 39.2386 39.5257C42.7841 35.9803 45 31.1053 45 25.7871C45 14.9292 36.358 6.28711 25.5 6.28711ZM15.0852 28.6678H10.875V22.9064H15.0852V28.6678ZM21.2898 34.2076H17.0795V17.3667H21.2898V34.2076ZM27.4943 38.4178H23.5057V13.1564H27.7159V38.4178H27.4943ZM33.9205 32.2132H29.7102V19.361H33.9205V32.2132ZM35.9148 21.5769H40.125V29.9973H35.9148V21.5769Z" fill="white"/>
</svg>
