<svg width="245" height="78" viewBox="0 0 245 78" fill="none" xmlns="http://www.w3.org/2000/svg">
<path d="M30.9424 44.5709V27.4187H36.8357C38.1766 27.4187 39.2056 27.7697 39.9227 28.4717C40.6399 29.1737 40.9985 30.2657 40.9985 31.7477C40.9985 32.4809 40.8816 33.1205 40.6477 33.6665C40.4139 34.1969 40.1098 34.6337 39.7357 34.9769C39.3615 35.3045 38.9639 35.5307 38.543 35.6555C38.8236 35.7335 39.1354 35.8583 39.4784 36.0299C39.8214 36.1859 40.1566 36.4277 40.484 36.7553C40.827 37.0673 41.0999 37.4729 41.3025 37.9721C41.5208 38.4713 41.63 39.0797 41.63 39.7973C41.63 41.0453 41.4351 42.0125 41.0453 42.6989C40.6555 43.3853 40.1176 43.8689 39.4316 44.1497C38.7456 44.4305 37.9427 44.5709 37.0228 44.5709H30.9424ZM31.9012 43.7051H36.9995C37.7322 43.7051 38.3715 43.5959 38.9171 43.3775C39.4784 43.1591 39.915 42.7613 40.2268 42.1841C40.5386 41.6069 40.6945 40.7723 40.6945 39.6803C40.6945 38.9159 40.523 38.2685 40.18 37.7381C39.8526 37.2077 39.4082 36.8021 38.847 36.5213C38.2857 36.2405 37.6699 36.1001 36.9995 36.1001H31.9012V43.7051ZM31.9012 35.3045H36.9761C37.8492 35.3045 38.5741 34.9925 39.151 34.3685C39.7279 33.7445 40.0319 32.9021 40.0631 31.8413C40.1098 30.5153 39.8292 29.5949 39.2212 29.0801C38.6131 28.5497 37.818 28.2845 36.8357 28.2845H31.9012V35.3045Z" fill="black"/>
<path d="M52.0332 44.5709C51.5031 44.5709 50.9964 44.4851 50.5131 44.3135C50.0454 44.1419 49.6634 43.8299 49.3672 43.3775C49.0865 42.9251 48.9462 42.2855 48.9462 41.4587V27.4187H49.9051V41.3885C49.9051 42.0281 50.0142 42.5117 50.2325 42.8393C50.4663 43.1669 50.7548 43.3853 51.0978 43.4945C51.4408 43.6037 51.7994 43.6583 52.1735 43.6583H58.6983V44.5709H52.0332Z" fill="black"/>
<path d="M64.5981 44.5709L70.7487 27.4187H72.035L78.1856 44.5709H77.1566L75.122 38.9315H67.6383L65.6037 44.5709H64.5981ZM67.8722 38.0657H74.8179L71.3801 28.3079L67.8722 38.0657Z" fill="black"/>
<path d="M90.7249 44.7113C89.6647 44.7113 88.7526 44.5943 87.9887 44.3603C87.2403 44.1263 86.6245 43.7051 86.1411 43.0967C85.6734 42.4727 85.3226 41.5913 85.0888 40.4525C84.8705 39.2981 84.7614 37.7927 84.7614 35.9363C84.7614 34.2203 84.8705 32.8007 85.0888 31.6775C85.3226 30.5387 85.6812 29.6573 86.1645 29.0333C86.6634 28.3937 87.3027 27.9413 88.0822 27.6761C88.8618 27.4109 89.7972 27.2783 90.8886 27.2783C91.216 27.2783 91.6447 27.3017 92.1748 27.3485C92.7205 27.3953 93.2896 27.4577 93.882 27.5357C94.4901 27.5981 95.0591 27.6839 95.5892 27.7931V28.4717C95.3242 28.4249 94.9422 28.3781 94.4433 28.3313C93.96 28.2845 93.4065 28.2455 92.7829 28.2143C92.1592 28.1675 91.5434 28.1441 90.9353 28.1441C89.9999 28.1441 89.197 28.2533 88.5266 28.4717C87.8561 28.6901 87.3105 29.0879 86.8895 29.6651C86.4841 30.2267 86.1879 31.0145 86.0008 32.0285C85.8137 33.0425 85.7202 34.3529 85.7202 35.9597C85.7202 37.6289 85.8137 38.9861 86.0008 40.0313C86.1879 41.0765 86.4841 41.8799 86.8895 42.4415C87.2949 42.9875 87.8172 43.3619 88.4564 43.5647C89.1112 43.7519 89.9063 43.8455 90.8418 43.8455C92.0111 43.8455 92.97 43.8143 93.7183 43.7519C94.4823 43.6739 95.1059 43.5959 95.5892 43.5179V44.2199C95.0747 44.3135 94.5213 44.3993 93.9288 44.4773C93.3519 44.5553 92.7829 44.6099 92.2216 44.6411C91.6603 44.6879 91.1614 44.7113 90.7249 44.7113Z" fill="black"/>
<path d="M102.912 44.5709V27.4187H103.871V35.5385H107.309L112.664 27.4187H113.693L108.057 35.9831L113.717 44.5709H112.664L107.285 36.4277H103.871V44.5709H102.912Z" fill="black"/>
<path d="M125.956 44.7113C124.896 44.7113 123.984 44.5943 123.22 44.3603C122.471 44.1263 121.856 43.7051 121.372 43.0967C120.905 42.4727 120.554 41.5913 120.32 40.4525C120.102 39.2981 119.993 37.7927 119.993 35.9363C119.993 34.2203 120.102 32.8007 120.32 31.6775C120.554 30.5387 120.912 29.6573 121.396 29.0333C121.895 28.3937 122.534 27.9413 123.313 27.6761C124.093 27.4109 125.028 27.2783 126.12 27.2783C126.447 27.2783 126.876 27.3017 127.406 27.3485C127.952 27.3953 128.521 27.4577 129.113 27.5357C129.721 27.5981 130.29 27.6839 130.82 27.7931V28.4717C130.555 28.4249 130.173 28.3781 129.674 28.3313C129.191 28.2845 128.638 28.2455 128.014 28.2143C127.39 28.1675 126.775 28.1441 126.167 28.1441C125.231 28.1441 124.428 28.2533 123.758 28.4717C123.087 28.6901 122.542 29.0879 122.121 29.6651C121.715 30.2267 121.419 31.0145 121.232 32.0285C121.045 33.0425 120.951 34.3529 120.951 35.9597C120.951 37.6289 121.045 38.9861 121.232 40.0313C121.419 41.0765 121.715 41.8799 122.121 42.4415C122.526 42.9875 123.048 43.3619 123.688 43.5647C124.342 43.7519 125.138 43.8455 126.073 43.8455C127.242 43.8455 128.201 43.8143 128.95 43.7519C129.713 43.6739 130.337 43.5959 130.82 43.5179V44.2199C130.306 44.3135 129.752 44.3993 129.16 44.4773C128.583 44.5553 128.014 44.6099 127.453 44.6411C126.892 44.6879 126.393 44.7113 125.956 44.7113Z" fill="black"/>
<path d="M137.184 44.5709L143.335 27.4187H144.621L150.772 44.5709H149.743L147.708 38.9315H140.225L138.19 44.5709H137.184ZM140.459 38.0657H147.404L143.966 28.3079L140.459 38.0657Z" fill="black"/>
<path d="M160.855 44.5709V28.2845H155.219V27.4187H167.45V28.2845H161.814V44.5709H160.855Z" fill="black"/>
<path d="M179.442 44.7113C178.382 44.7113 177.47 44.5943 176.706 44.3603C175.958 44.1263 175.342 43.7051 174.859 43.0967C174.391 42.4727 174.04 41.5913 173.806 40.4525C173.588 39.2981 173.479 37.7927 173.479 35.9363C173.479 34.2203 173.588 32.8007 173.806 31.6775C174.04 30.5387 174.399 29.6573 174.882 29.0333C175.381 28.3937 176.02 27.9413 176.8 27.6761C177.579 27.4109 178.515 27.2783 179.606 27.2783C179.933 27.2783 180.362 27.3017 180.892 27.3485C181.438 27.3953 182.007 27.4577 182.599 27.5357C183.208 27.5981 183.777 27.6839 184.307 27.7931V28.4717C184.042 28.4249 183.66 28.3781 183.161 28.3313C182.677 28.2845 182.124 28.2455 181.5 28.2143C180.877 28.1675 180.261 28.1441 179.653 28.1441C178.717 28.1441 177.914 28.2533 177.244 28.4717C176.574 28.6901 176.028 29.0879 175.607 29.6651C175.202 30.2267 174.905 31.0145 174.718 32.0285C174.531 33.0425 174.438 34.3529 174.438 35.9597C174.438 37.6289 174.531 38.9861 174.718 40.0313C174.905 41.0765 175.202 41.8799 175.607 42.4415C176.012 42.9875 176.535 43.3619 177.174 43.5647C177.829 43.7519 178.624 43.8455 179.559 43.8455C180.729 43.8455 181.687 43.8143 182.436 43.7519C183.2 43.6739 183.823 43.5959 184.307 43.5179V44.2199C183.792 44.3135 183.239 44.3993 182.646 44.4773C182.069 44.5553 181.5 44.6099 180.939 44.6411C180.378 44.6879 179.879 44.7113 179.442 44.7113Z" fill="black"/>
<path d="M190.671 44.5709L196.821 27.4187H198.108L204.258 44.5709H203.229L201.195 38.9315H193.711L191.676 44.5709H190.671ZM193.945 38.0657H200.891L197.453 28.3079L193.945 38.0657Z" fill="black"/>
<path d="M211.483 44.5709V27.4187H218.031C218.53 27.4187 219.021 27.4733 219.505 27.5825C220.004 27.6917 220.456 27.9101 220.861 28.2377C221.282 28.5653 221.617 29.0489 221.867 29.6885C222.132 30.3125 222.264 31.1549 222.264 32.2157C222.264 33.2297 222.147 34.0487 221.914 34.6727C221.68 35.2967 221.376 35.7803 221.002 36.1235C220.643 36.4667 220.253 36.7085 219.832 36.8489C219.427 36.9737 219.037 37.0517 218.663 37.0829L222.358 44.5709H221.399L217.751 37.1765C217.455 37.1765 217.08 37.1687 216.628 37.1531C216.176 37.1375 215.693 37.1297 215.178 37.1297C214.664 37.1141 214.165 37.0985 213.682 37.0829C213.198 37.0673 212.785 37.0517 212.442 37.0361V44.5709H211.483ZM212.442 36.3575H217.938C218.39 36.3575 218.811 36.3107 219.201 36.2171C219.606 36.1079 219.965 35.9129 220.277 35.6321C220.588 35.3357 220.838 34.9145 221.025 34.3685C221.212 33.8225 221.306 33.1049 221.306 32.2157C221.306 31.3733 221.204 30.6947 221.002 30.1799C220.814 29.6651 220.565 29.2751 220.253 29.0099C219.941 28.7291 219.583 28.5419 219.177 28.4483C218.788 28.3391 218.374 28.2845 217.938 28.2845H212.442V36.3575Z" fill="black"/>
<path d="M229.647 44.5709V27.4187H236.148C237.115 27.4187 237.941 27.5981 238.627 27.9569C239.313 28.3001 239.875 28.8305 240.311 29.5481C240.748 30.2501 241.067 31.1393 241.27 32.2157C241.488 33.2921 241.597 34.5557 241.597 36.0065C241.597 37.7225 241.387 39.2279 240.966 40.5227C240.561 41.8019 239.953 42.8003 239.142 43.5179C238.347 44.2199 237.349 44.5709 236.148 44.5709H229.647ZM230.606 43.7051H236.102C237.146 43.7051 237.996 43.3853 238.651 42.7457C239.321 42.0905 239.82 41.1857 240.147 40.0313C240.475 38.8613 240.639 37.5197 240.639 36.0065C240.639 34.6337 240.553 33.4637 240.381 32.4965C240.21 31.5137 239.945 30.7103 239.586 30.0863C239.228 29.4623 238.76 29.0099 238.183 28.7291C237.606 28.4327 236.912 28.2845 236.102 28.2845H230.606V43.7051Z" fill="black"/>
<path d="M4.45446 26.7429V34.5429H11.6931V26.7429H9.46582V27.3001H6.68173V26.7429H4.45446Z" fill="black"/>
<path d="M11.6931 36.7715H4.45446V44.0144H7.79537C7.79537 47.1343 5.56809 48.4715 3.34082 48.4715L3.89764 51.2572C9.46582 51.2572 11.6931 48.4715 11.6931 43.4572V36.7715Z" fill="black"/>
</svg>
