<svg width="245" height="78" viewBox="0 0 245 78" fill="none" xmlns="http://www.w3.org/2000/svg">
<g clip-path="url(#clip0_2702_121764)">
<path d="M208.652 5.29517H36.2878V51.4703H208.652V5.29517Z" fill="#003D7C"/>
<path fill-rule="evenodd" clip-rule="evenodd" d="M65.9045 42.5451L71.8398 24.6979V42.5451H80.7128V14.1572H68.7223L62.9668 28.3512L57.2114 14.1572H45.2208V42.5451H54.0938V24.6979L60.0891 42.5451H65.9045ZM161.409 31.5253C164.167 31.2858 166.925 29.4292 166.925 26.3149V19.9067V19.3078C166.625 16.1336 164.227 14.3968 161.349 14.1572H138.507V42.5451H147.38V31.5253H150.917L156.673 42.5451H166.865L159.97 31.5253H161.409ZM158.891 24.1589C158.891 24.7578 158.711 25.2968 157.632 25.2968H147.32V19.727H157.632C158.891 19.727 158.891 20.5655 158.891 21.0446V24.1589ZM107.392 19.727V14.1572H84.25V42.5451H107.632V36.9753H93.123V30.8665H107.332V25.2968H93.123V19.727H107.392ZM118.483 19.727H110.03V14.1572H135.809V19.727H127.356V42.5451H118.483V19.727ZM194.923 14.1572H176.038C173.22 14.3968 170.822 15.8341 170.462 19.0682V37.3945C170.762 40.6286 173.16 42.3055 176.038 42.5451H194.923C197.74 42.3055 200.139 40.6286 200.498 37.3945V19.0682C200.139 15.8341 197.74 14.3968 194.923 14.1572ZM191.565 35.7176C191.505 36.0171 191.386 36.8555 190.306 36.9753H180.654C179.575 36.8555 179.335 36.0171 179.335 35.7176V20.8649C179.395 20.5655 179.515 19.8468 180.594 19.727H190.246C191.326 19.8468 191.445 20.5056 191.505 20.8649V35.7176H191.565Z" fill="#003D7C"/>
<path d="M208.652 5.29517H36.2878V51.4703H208.652V5.29517Z" fill="#003D7C"/>
<path fill-rule="evenodd" clip-rule="evenodd" d="M65.9045 42.5451L71.8398 24.6979V42.5451H80.7128V14.1572H68.7223L62.9668 28.3512L57.2114 14.1572H45.2208V42.5451H54.0938V24.6979L60.0891 42.5451H65.9045ZM161.409 31.5253C164.167 31.2858 166.925 29.4292 166.925 26.3149V19.9067V19.3078C166.625 16.1336 164.227 14.3968 161.349 14.1572H138.507V42.5451H147.38V31.5253H150.917L156.673 42.5451H166.865L159.97 31.5253H161.409ZM158.891 24.1589C158.891 24.7578 158.711 25.2968 157.632 25.2968H147.32V19.727H157.632C158.891 19.727 158.891 20.5655 158.891 21.0446V24.1589ZM107.392 19.727V14.1572H84.25V42.5451H107.632V36.9753H93.123V30.8665H107.332V25.2968H93.123V19.727H107.392ZM118.483 19.727H110.03V14.1572H135.809V19.727H127.356V42.5451H118.483V19.727ZM194.923 14.1572H176.038C173.22 14.3968 170.822 15.8341 170.462 19.0682V37.3945C170.762 40.6286 173.16 42.3055 176.038 42.5451H194.923C197.74 42.3055 200.139 40.6286 200.498 37.3945V19.0682C200.139 15.8341 197.74 14.3968 194.923 14.1572ZM191.565 35.7176C191.505 36.0171 191.386 36.8555 190.306 36.9753H180.654C179.575 36.8555 179.335 36.0171 179.335 35.7176V20.8649C179.395 20.5655 179.515 19.8468 180.594 19.727H190.246C191.326 19.8468 191.445 20.5056 191.505 20.8649V35.7176H191.565Z" fill="#FFE500"/>
<path d="M85.2696 65.2451V65.4846C85.2696 66.5027 84.79 66.5626 83.8308 66.5626C82.3919 66.5626 82.3319 66.0835 82.3319 64.7659V63.3885C82.3319 62.1308 82.4519 61.7116 83.8308 61.7116C84.6101 61.7116 85.2097 61.7714 85.2696 62.55V62.9094H87.6677V62.55C87.6078 59.9149 86.4687 59.6753 84.0706 59.6753C81.4926 59.6753 79.9338 60.0945 79.9338 63.0291V65.3049C79.9338 68.539 81.6725 68.6588 84.0706 68.6588C85.0898 68.6588 86.049 68.6588 86.8883 68C87.6677 67.3412 87.7277 66.4429 87.7277 65.4846V65.2451" fill="#003D7C"/>
<path fill-rule="evenodd" clip-rule="evenodd" d="M93.0031 68.5982H95.0415V64.7652C95.0415 62.6691 94.1422 62.3696 92.1039 62.3696C90.665 62.3696 89.2861 62.3696 89.2861 64.2861H91.3245C91.3245 63.7471 91.6242 63.6273 92.1638 63.6273C93.0631 63.6273 93.0631 63.9867 93.0631 64.5856V65.5438H92.9432C92.7034 64.8251 91.864 64.8251 91.2645 64.8251C89.8256 64.8251 89.0463 65.3042 89.0463 66.7416C89.0463 68.2987 89.8856 68.6581 91.2645 68.6581C91.9839 68.6581 92.8832 68.5383 93.0631 67.6998H93.1231L93.0031 68.5982ZM91.864 66.0229C92.5235 66.0229 92.9432 66.0828 92.9432 66.5619C92.9432 67.2207 92.7034 67.3405 91.864 67.3405C91.5643 67.3405 90.9648 67.3405 90.9648 66.6817C91.0247 66.1427 91.3844 66.0229 91.864 66.0229Z" fill="#003D7C"/>
<path d="M102.176 64.1663V63.8669C102.176 62.3696 100.558 62.3696 99.4785 62.3696C97.7399 62.3696 96.4809 62.4295 96.4809 64.4059C96.4809 65.6636 96.9605 66.2625 99.4785 66.2625C100.198 66.2625 100.558 66.2625 100.558 66.8614C100.558 67.3405 100.438 67.4004 99.4785 67.4004C98.9989 67.4004 98.4593 67.4004 98.4593 66.6817H96.4209C96.4209 68.718 97.8598 68.6581 99.4185 68.6581C101.037 68.6581 102.416 68.3586 102.416 66.5619C102.416 64.8251 101.457 64.7053 99.4185 64.6455C98.3993 64.6455 98.3394 64.4059 98.3394 64.1064C98.3394 63.7471 98.3394 63.6273 99.4185 63.6273C99.7183 63.6273 100.198 63.6273 100.258 64.1663" fill="#003D7C"/>
<path d="M105.954 59.793H103.915V68.5968H105.954V65.1831C105.954 64.4045 106.133 63.8655 107.033 63.8655C107.692 63.8655 107.872 64.1649 107.872 64.7638V68.5369H109.91V64.3446C109.91 63.027 109.311 62.3682 107.932 62.3682C106.973 62.3682 106.373 62.6078 106.073 63.566H106.014" fill="#003D7C"/>
<path fill-rule="evenodd" clip-rule="evenodd" d="M123.459 68.5989L124.479 67.3412L123.519 66.4429C123.639 66.1434 123.759 65.844 123.759 65.6044V63.8676H121.901V65.0055L119.742 63.089C119.443 62.8495 119.263 62.6099 119.263 62.1907C119.263 61.5319 119.443 61.4121 120.042 61.4121C120.522 61.4121 120.762 61.472 120.941 61.5918C121.061 61.7714 121.121 62.011 121.121 62.4901H123.16V62.0709C123.16 59.9747 122.081 59.6753 120.102 59.6753C118.124 59.6753 117.164 60.0346 117.164 62.011C117.164 62.7297 117.284 63.0291 117.824 63.5083C116.505 63.5083 116.265 64.7061 116.265 65.7841C116.265 68.3593 117.824 68.5989 120.102 68.5989C121.061 68.5989 122.141 68.5989 122.74 67.8203L123.459 68.5989ZM121.301 66.6225C120.882 66.8022 120.462 66.8022 120.102 66.8022C119.023 66.8022 118.423 66.8022 118.423 65.6643C118.423 65.2451 118.423 64.706 118.963 64.6462L121.301 66.6225Z" fill="#003D7C"/>
<path d="M135.51 65.2451V65.4846C135.51 66.5027 135.03 66.5626 134.071 66.5626C132.632 66.5626 132.572 66.0835 132.572 64.7659V63.3885C132.572 62.1308 132.692 61.7116 134.071 61.7116C134.85 61.7116 135.45 61.7714 135.51 62.55V62.9094H137.908V62.55C137.848 59.9149 136.709 59.6753 134.31 59.6753C131.732 59.6753 130.174 60.0945 130.174 63.0291V65.3049C130.174 68.539 131.912 68.6588 134.31 68.6588C135.33 68.6588 136.289 68.6588 137.128 68C137.908 67.3412 137.968 66.4429 137.968 65.4846V65.2451" fill="#003D7C"/>
<path fill-rule="evenodd" clip-rule="evenodd" d="M143.183 68.5982H145.222V64.7652C145.222 62.6691 144.322 62.3696 142.284 62.3696C140.845 62.3696 139.466 62.3696 139.466 64.2861H141.505C141.505 63.7471 141.804 63.6273 142.344 63.6273C143.243 63.6273 143.243 63.9867 143.243 64.5856V65.5438H143.123C142.883 64.8251 142.044 64.8251 141.445 64.8251C140.006 64.8251 139.226 65.3042 139.226 66.7416C139.226 68.2987 140.066 68.6581 141.445 68.6581C142.164 68.6581 143.063 68.5383 143.243 67.6998H143.303L143.183 68.5982ZM142.104 66.0229C142.764 66.0229 143.183 66.0828 143.183 66.5619C143.183 67.2207 142.943 67.3405 142.104 67.3405C141.804 67.3405 141.205 67.3405 141.205 66.6817C141.205 66.1427 141.624 66.0229 142.104 66.0229Z" fill="#003D7C"/>
<path d="M150.198 65.1246H151.997V64.6454C151.997 63.5075 151.877 62.3696 150.498 62.3696C149.719 62.3696 149.239 62.6691 148.939 63.3279H148.879V62.4295H146.901V68.5982H148.939V64.885C148.939 64.4059 149.059 63.9268 149.719 63.9268C150.258 63.9268 150.258 64.4059 150.258 64.8251" fill="#003D7C"/>
<path d="M156.673 65.1246H158.471V64.6454C158.471 63.5075 158.351 62.3696 156.972 62.3696C156.193 62.3696 155.713 62.6691 155.414 63.3279H155.354V62.4295H153.375V68.5982H155.414V64.885C155.414 64.4059 155.533 63.9268 156.193 63.9268C156.732 63.9268 156.732 64.4059 156.732 64.8251" fill="#003D7C"/>
<path d="M165.606 62.4285H163.508L162.489 67.4592L161.29 62.4285H159.191L161.05 68.5971H162.129C162.069 69.3158 161.889 69.9147 161.05 69.9147C160.93 69.9147 160.81 69.9147 160.69 69.9147V71.2922C160.93 71.2922 161.17 71.3521 161.41 71.3521C163.148 71.3521 163.748 70.7532 164.047 69.1361" fill="#003D7C"/>
</g>
<defs>
<clipPath id="clip0_2702_121764">
<rect width="171.5" height="65.7429" fill="white" transform="translate(36.75 5.57153)"/>
</clipPath>
</defs>
</svg>
