<svg width="245" height="78" viewBox="0 0 245 78" fill="none" xmlns="http://www.w3.org/2000/svg">
<path d="M152.544 30.2732H165.13L150.224 49.7777H137.634L152.544 30.2732ZM151.597 28.3677L135.752 49.1088C135.373 49.6032 135.311 50.228 135.589 50.7806C135.856 51.3271 136.424 51.6812 137.024 51.6812H151.169L167.143 30.7826C167.492 30.3143 167.543 29.7065 167.294 29.1931C167.039 28.6816 166.518 28.3677 165.932 28.3677H151.597ZM106.345 18.2288C106.426 18.0925 106.578 18.0012 106.747 18.0012H115.002L116.188 11.1838C116.228 10.9722 116.413 10.8227 116.634 10.8227L124.359 10.8167C124.501 10.8167 124.616 10.8598 124.697 10.9511C124.781 11.0564 124.823 11.1968 124.803 11.3212L124.035 15.7327L160.354 15.7588C160.551 15.7588 160.691 15.8781 160.76 15.9915C160.802 16.0757 160.86 16.2472 160.741 16.4097L157.462 20.6939L184.379 20.6868C184.535 20.6868 184.648 20.7851 184.692 20.8734C184.735 20.9366 184.77 21.0689 184.688 21.1903L162.317 50.4888C162.062 50.8077 162.073 51.618 162.251 51.965C162.435 52.314 163.074 52.8114 163.473 52.8114L179.209 52.8274C179.392 52.8274 179.499 52.9217 179.548 52.9778C179.633 53.0761 179.67 53.2075 179.65 53.3349L178.454 60.1814C178.415 60.389 178.228 60.5394 178.007 60.5394H118.139L117.155 60.5334C117.228 60.8723 117.257 61.2243 117.257 61.5834C117.257 64.6631 114.762 67.1603 111.679 67.1603C108.598 67.1603 106.102 64.6631 106.102 61.5834C106.102 58.5026 108.598 56.0085 111.679 56.0085C113.783 56.0085 115.617 57.1748 116.571 58.8967L140.971 26.8985C141.363 26.0722 141.168 25.7763 140.956 25.29C140.799 24.9229 140.21 24.5458 139.569 24.5519H122.49L118.126 49.4789C118.084 49.6744 117.897 49.8118 117.687 49.8118H109.956C109.777 49.8118 109.667 49.7155 109.615 49.6584C109.568 49.6022 109.482 49.4789 109.515 49.3014L114.255 22.2443L94.9743 60.053C94.8009 60.3569 94.4801 60.5524 94.1183 60.5524L87.5513 60.5845C87.3168 60.5845 87.1244 60.417 87.1033 60.2165L85.2922 32.7502L71.0467 60.06C70.8763 60.3609 70.5476 60.5554 70.1948 60.5554L63.5336 60.5514C63.3051 60.5514 63.1106 60.3829 63.0916 60.1663L58.7467 18.4725C58.7367 18.3422 58.7818 18.2138 58.8599 18.1256C58.9411 18.0443 59.0574 18.0002 59.1977 18.0002H68.1511C68.3957 18.0002 68.6011 18.1988 68.6011 18.4605L69.9442 45.661L83.1122 18.2349C83.1834 18.0925 83.3428 18.0002 83.5101 18.0002L91.6727 17.9651C91.8983 17.9651 92.0997 18.1356 92.1137 18.3362L93.4408 45.7472L106.345 18.2288ZM116.254 8.91431C115.332 8.91431 114.548 9.57318 114.383 10.4878L113.399 16.0938H106.456C105.748 16.0938 105.114 16.4758 104.754 17.1377L94.9803 37.9901L94.0101 17.8307C93.9269 16.8549 93.101 16.0938 92.1137 16.0938H83.2275C82.5179 16.0938 81.8634 16.4889 81.5246 17.1417L71.4757 38.0734L70.4834 17.9932C70.4834 16.9442 69.6295 16.0948 68.5831 16.0948H58.6986C58.1583 16.0948 57.6572 16.3054 57.2944 16.6875C56.9436 17.0725 56.7632 17.6091 56.8002 18.1697L61.2313 60.752C61.3376 61.7157 62.1514 62.4428 63.1237 62.4428L70.4714 62.4458C71.3735 62.4458 72.1943 61.9534 72.6193 61.1531L83.8409 39.6479L85.224 60.752C85.3353 61.7157 86.1461 62.4428 87.1123 62.4428L94.406 62.4458C95.304 62.4458 96.1329 61.9474 96.5569 61.1431L110.194 34.3969L107.553 49.4809C107.453 50.0365 107.608 50.6021 107.966 51.0403C108.326 51.4685 108.859 51.7173 109.421 51.7173H118.065C118.963 51.7173 119.727 51.0915 119.927 50.1909L124.086 26.4523H138.934L116.495 55.831C115.152 54.7078 113.453 54.095 111.695 54.095C107.569 54.095 104.2 57.4586 104.2 61.5894C104.2 65.7232 107.569 69.0857 111.695 69.0857C115.487 69.0857 118.714 66.1885 119.15 62.4448L178.39 62.4418C179.324 62.4418 180.107 61.7789 180.26 60.8663L181.616 53.1513C181.71 52.5968 181.553 52.0281 181.195 51.6019C180.838 51.1757 180.308 50.931 179.742 50.931L164.378 50.917L186.778 21.5964C187.158 21.0278 187.192 20.3419 186.878 19.7522C186.57 19.1555 185.954 18.7814 185.28 18.7814H161.31L162.83 16.7968C163.229 16.2011 163.268 15.476 162.932 14.8422C162.597 14.2204 161.955 13.8253 161.257 13.8253H126.296L126.775 11.1356C126.865 10.5851 126.699 10.0014 126.333 9.57018C125.977 9.14697 125.466 8.91431 124.893 8.91431H116.254Z" fill="url(#paint0_linear_2702_121760)"/>
<defs>
<linearGradient id="paint0_linear_2702_121760" x1="121.943" y1="69.0857" x2="121.943" y2="8.91431" gradientUnits="userSpaceOnUse">
<stop stop-color="#161998"/>
<stop offset="0.129" stop-color="#441E93"/>
<stop offset="0.266" stop-color="#6E228F"/>
<stop offset="0.407" stop-color="#90258C"/>
<stop offset="0.549" stop-color="#AB2889"/>
<stop offset="0.694" stop-color="#BE2A87"/>
<stop offset="0.842" stop-color="#C92B86"/>
<stop offset="1" stop-color="#CD2B86"/>
</linearGradient>
</defs>
</svg>
