<svg width="245" height="78" viewBox="0 0 245 78" fill="none" xmlns="http://www.w3.org/2000/svg">
<g clip-path="url(#clip0_2702_121794)">
<path d="M23.5665 19.4503C12.8593 19.4503 4.2127 28.2214 4.2127 38.9995C4.2127 49.8148 12.8593 58.5488 23.5665 58.5488C34.2368 58.5488 42.9202 49.8148 42.9202 38.9995C42.9202 28.2214 34.2368 19.4503 23.5665 19.4503ZM0.827637 38.9995C0.827637 26.326 11.0196 16.031 23.5665 16.031C36.1133 16.031 46.3053 26.326 46.3053 38.9995C46.3053 51.6731 36.1133 61.968 23.5665 61.968C11.0196 61.968 0.827637 51.6731 0.827637 38.9995ZM8.62801 32.384C11.13 26.5861 16.9067 22.535 23.5665 22.535C27.0619 22.535 30.263 23.65 32.949 25.5083C37.1435 28.4816 39.8663 33.3875 39.8663 38.9624C39.8663 41.8613 39.1304 44.5744 37.8058 46.953C33.4273 47.3619 29.196 45.6522 27.0619 43.2736C32.6546 39.4084 34.2 32.384 33.0962 25.6198C26.4364 27.4038 20.4757 31.7893 19.4455 39.0739C17.0171 35.5059 13.1169 32.9415 8.62801 32.384ZM30.4102 29.8196C30.7413 35.5059 27.5034 40.003 22.573 42.456C25.443 47.176 30.0422 49.852 35.5982 50.075C32.6178 53.3456 28.3129 55.4269 23.5665 55.4269C23.0881 55.4269 22.6466 55.3897 22.2051 55.3525V42.2701C22.2051 36.9182 25.1118 31.8637 30.4102 29.8196ZM19.0776 54.8322C12.2706 52.8624 7.26662 46.507 7.26662 38.9995C7.26662 37.7731 7.4138 36.5466 7.67136 35.4316H7.74495C14.1103 36.0263 19.1144 41.2666 19.1144 48.1052V54.8322H19.0776Z" fill="#86983F"/>
<path fill-rule="evenodd" clip-rule="evenodd" d="M234.835 45.7417H234.394H231.156L227.992 39.2748H224.165V45.7417H220.89V29.5374H229.647C232.297 29.5374 234.467 31.7301 234.467 34.4061C234.467 36.4874 233.18 38.2713 231.34 38.9775L234.835 45.7417ZM224.202 32.362V36.6732H229.059C230.236 36.6732 231.193 35.7069 231.193 34.5176C231.193 33.3283 230.236 32.362 229.059 32.362H224.202Z" fill="#66513F"/>
<path fill-rule="evenodd" clip-rule="evenodd" d="M234.835 45.7417H234.394H231.156L227.992 39.2748H224.165V45.7417H220.89V29.5374H229.647C232.297 29.5374 234.467 31.7301 234.467 34.4061C234.467 36.4874 233.18 38.2713 231.34 38.9775L234.835 45.7417ZM224.202 32.362V36.6732H229.059C230.236 36.6732 231.193 35.7069 231.193 34.5176C231.193 33.3283 230.236 32.362 229.059 32.362H224.202Z" fill="#66513F"/>
<path fill-rule="evenodd" clip-rule="evenodd" d="M166.839 37.6785C166.839 32.9212 170.629 29.1675 175.412 29.1675C179.128 29.1675 182.219 31.3974 183.433 34.5937L183.58 35.0025H179.974C178.981 33.2929 177.325 32.2151 175.412 32.2151C172.505 32.2151 170.15 34.668 170.15 37.6785C170.15 40.6889 172.505 43.179 175.412 43.179C177.325 43.179 178.981 42.1384 179.974 40.3916H183.58L183.433 40.8004C182.219 43.9967 179.128 46.2266 175.412 46.2266C170.629 46.1151 166.839 42.4729 166.839 37.6785Z" fill="#66513F"/>
<path fill-rule="evenodd" clip-rule="evenodd" d="M166.839 37.6785C166.839 32.9212 170.629 29.1675 175.412 29.1675C179.128 29.1675 182.219 31.3974 183.433 34.5937L183.58 35.0025H179.974C178.981 33.2929 177.325 32.2151 175.412 32.2151C172.505 32.2151 170.15 34.668 170.15 37.6785C170.15 40.6889 172.505 43.179 175.412 43.179C177.325 43.179 178.981 42.1384 179.974 40.3916H183.58L183.433 40.8004C182.219 43.9967 179.128 46.2266 175.412 46.2266C170.629 46.1151 166.839 42.4729 166.839 37.6785Z" fill="#66513F"/>
<path fill-rule="evenodd" clip-rule="evenodd" d="M62.4174 45.7417V39.4978L56.3463 29.5374H60.1361L64.1099 36.5245L68.0101 29.5374H71.6895L65.6553 39.535V45.7417H62.4174Z" fill="#66513F"/>
<path fill-rule="evenodd" clip-rule="evenodd" d="M62.4174 45.7417V39.4978L56.3463 29.5374H60.1361L64.1099 36.5245L68.0101 29.5374H71.6895L65.6553 39.535V45.7417H62.4174Z" fill="#66513F"/>
<path fill-rule="evenodd" clip-rule="evenodd" d="M76.1046 29.5374L80.1152 41.5419L84.1258 29.5374H87.6212L81.8077 45.7417H78.3123L72.5724 29.5374H76.1046Z" fill="#66513F"/>
<path fill-rule="evenodd" clip-rule="evenodd" d="M76.1046 29.5374L80.1152 41.5419L84.1258 29.5374H87.6212L81.8077 45.7417H78.3123L72.5724 29.5374H76.1046Z" fill="#66513F"/>
<path fill-rule="evenodd" clip-rule="evenodd" d="M109.293 33.8133C109.293 34.8168 109.477 35.1141 113.009 35.9317C115.07 36.4149 116.063 36.7494 116.91 37.3069C118.161 38.1989 118.823 39.3882 118.823 40.912C118.823 44.1826 116.284 46.078 112.347 46.078C108.373 46.078 105.834 44.1082 105.577 40.689H108.815C109.109 42.4729 110.287 43.3277 112.531 43.3277C114.518 43.3277 115.585 42.4358 115.585 41.135C115.585 40.4288 115.291 39.9828 114.444 39.5368C114.113 39.4253 113.635 39.2395 113.083 39.0908L112.494 38.9422L112.163 38.8678C110.066 38.3103 108.484 37.79 107.785 37.3069C106.681 36.5636 106.092 35.4114 106.092 33.9991C106.092 30.9887 108.52 29.1304 112.126 29.1304C115.659 29.1304 117.866 30.84 118.161 33.9248H114.959C114.628 32.4753 113.672 31.8435 111.979 31.8435C110.213 31.8806 109.293 32.6611 109.293 33.8133Z" fill="#66513F"/>
<path fill-rule="evenodd" clip-rule="evenodd" d="M109.293 33.8133C109.293 34.8168 109.477 35.1141 113.009 35.9317C115.07 36.4149 116.063 36.7494 116.91 37.3069C118.161 38.1989 118.823 39.3882 118.823 40.912C118.823 44.1826 116.284 46.078 112.347 46.078C108.373 46.078 105.834 44.1082 105.577 40.689H108.815C109.109 42.4729 110.287 43.3277 112.531 43.3277C114.518 43.3277 115.585 42.4358 115.585 41.135C115.585 40.4288 115.291 39.9828 114.444 39.5368C114.113 39.4253 113.635 39.2395 113.083 39.0908L112.494 38.9422L112.163 38.8678C110.066 38.3103 108.484 37.79 107.785 37.3069C106.681 36.5636 106.092 35.4114 106.092 33.9991C106.092 30.9887 108.52 29.1304 112.126 29.1304C115.659 29.1304 117.866 30.84 118.161 33.9248H114.959C114.628 32.4753 113.672 31.8435 111.979 31.8435C110.213 31.8806 109.293 32.6611 109.293 33.8133Z" fill="#66513F"/>
<path fill-rule="evenodd" clip-rule="evenodd" d="M196.679 39.312H190.167V45.7417H186.892V29.5374H190.167V36.3759H196.679V29.5374H199.954V45.7417H196.679V39.312Z" fill="#66513F"/>
<path fill-rule="evenodd" clip-rule="evenodd" d="M196.679 39.312H190.167V45.7417H186.892V29.5374H190.167V36.3759H196.679V29.5374H199.954V45.7417H196.679V39.312Z" fill="#66513F"/>
<path fill-rule="evenodd" clip-rule="evenodd" d="M208.343 36.4874H214.414V39.312H208.343V42.8427H216.805V45.7417H205.105V29.5374H216.805V32.4363H208.343V36.4874Z" fill="#66513F"/>
<path fill-rule="evenodd" clip-rule="evenodd" d="M208.343 36.4874H214.414V39.312H208.343V42.8427H216.805V45.7417H205.105V29.5374H216.805V32.4363H208.343V36.4874Z" fill="#66513F"/>
<path fill-rule="evenodd" clip-rule="evenodd" d="M163.97 37.6391C163.97 42.3963 160.18 46.1501 155.397 46.1501C150.54 46.1501 146.787 42.4706 146.787 37.7134C146.787 32.9562 150.577 29.2024 155.397 29.2024C160.217 29.1653 163.97 32.8819 163.97 37.6391ZM150.135 37.6391C150.135 40.6867 152.49 43.1396 155.397 43.1396C158.267 43.1396 160.621 40.6867 160.621 37.6391C160.621 34.6286 158.267 32.1757 155.397 32.1757C152.49 32.1757 150.135 34.6286 150.135 37.6391Z" fill="#66513F"/>
<path fill-rule="evenodd" clip-rule="evenodd" d="M163.97 37.6391C163.97 42.3963 160.18 46.1501 155.397 46.1501C150.54 46.1501 146.787 42.4706 146.787 37.7134C146.787 32.9562 150.577 29.2024 155.397 29.2024C160.217 29.1653 163.97 32.8819 163.97 37.6391ZM150.135 37.6391C150.135 40.6867 152.49 43.1396 155.397 43.1396C158.267 43.1396 160.621 40.6867 160.621 37.6391C160.621 34.6286 158.267 32.1757 155.397 32.1757C152.49 32.1757 150.135 34.6286 150.135 37.6391Z" fill="#66513F"/>
<path fill-rule="evenodd" clip-rule="evenodd" d="M144.395 45.7417H143.953H140.716L137.551 39.2748H133.725V45.7417H130.45V29.5374H139.207C141.893 29.5374 144.027 31.7301 144.027 34.4061C144.027 36.4874 142.739 38.2713 140.9 38.9775L144.395 45.7417ZM133.761 32.362V36.6732H138.618C139.796 36.6732 140.752 35.7069 140.752 34.5176C140.752 33.3283 139.796 32.362 138.618 32.362H133.761Z" fill="#66513F"/>
<path fill-rule="evenodd" clip-rule="evenodd" d="M144.395 45.7417H143.953H140.716L137.551 39.2748H133.725V45.7417H130.45V29.5374H139.207C141.893 29.5374 144.027 31.7301 144.027 34.4061C144.027 36.4874 142.739 38.2713 140.9 38.9775L144.395 45.7417ZM133.761 32.362V36.6732H138.618C139.796 36.6732 140.752 35.7069 140.752 34.5176C140.752 33.3283 139.796 32.362 138.618 32.362H133.761Z" fill="#66513F"/>
<path fill-rule="evenodd" clip-rule="evenodd" d="M94.0969 36.4874H100.131V39.312H94.0969V42.8427H102.56V45.7417H90.8223V29.5374H102.56V32.4363H94.0969V36.4874Z" fill="#66513F"/>
<path fill-rule="evenodd" clip-rule="evenodd" d="M94.0969 36.4874H100.131V39.312H94.0969V42.8427H102.56V45.7417H90.8223V29.5374H102.56V32.4363H94.0969V36.4874Z" fill="#66513F"/>
<path d="M137.809 56.5206H139.649L138.729 53.919L137.809 56.5206ZM140.127 57.8214H137.368L136.779 59.4567H135.16L137.956 51.9863H139.575L142.335 59.4567H140.716L140.127 57.8214Z" fill="#66513F"/>
<path d="M137.809 56.5206H139.649L138.729 53.919L137.809 56.5206ZM140.127 57.8214H137.368L136.779 59.4567H135.16L137.956 51.9863H139.575L142.335 59.4567H140.716L140.127 57.8214Z" fill="#66513F"/>
<path d="M149.988 59.4196H148.479V51.9492H149.988L152.968 56.595V51.9492H154.513V59.4196H152.968L149.988 54.7738V59.4196Z" fill="#66513F"/>
<path d="M149.988 59.4196H148.479V51.9492H149.988L152.968 56.595V51.9492H154.513V59.4196H152.968L149.988 54.7738V59.4196Z" fill="#66513F"/>
<path fill-rule="evenodd" clip-rule="evenodd" d="M112.972 55.1827H115.879V56.4463H112.972V59.4196H111.464V51.9492H116.652V53.2872H112.972V55.1827Z" fill="#66513F"/>
<path fill-rule="evenodd" clip-rule="evenodd" d="M112.972 55.1827H115.879V56.4463H112.972V59.4196H111.464V51.9492H116.652V53.2872H112.972V55.1827Z" fill="#66513F"/>
<path fill-rule="evenodd" clip-rule="evenodd" d="M129.015 59.4196H128.794H127.323L125.851 56.4463H124.305V59.4196H122.797V51.9492H126.623C127.838 51.9492 128.868 52.9527 128.868 54.2163C128.868 55.1826 128.279 56.0003 127.433 56.3348L129.015 59.4196ZM124.342 53.25V55.257H126.366C126.918 55.257 127.359 54.811 127.359 54.2907C127.359 53.7332 126.918 53.2872 126.366 53.2872H124.342V53.25Z" fill="#66513F"/>
<path fill-rule="evenodd" clip-rule="evenodd" d="M129.015 59.4196H128.794H127.323L125.851 56.4463H124.305V59.4196H122.797V51.9492H126.623C127.838 51.9492 128.868 52.9527 128.868 54.2163C128.868 55.1826 128.279 56.0003 127.433 56.3348L129.015 59.4196ZM124.342 53.25V55.257H126.366C126.918 55.257 127.359 54.811 127.359 54.2907C127.359 53.7332 126.918 53.2872 126.366 53.2872H124.342V53.25Z" fill="#66513F"/>
<path fill-rule="evenodd" clip-rule="evenodd" d="M160.658 55.704C160.658 53.5112 162.388 51.7644 164.632 51.7644C166.361 51.7644 167.76 52.805 168.312 54.2545L168.385 54.4032H166.729C166.288 53.6227 165.515 53.1395 164.632 53.1395C163.308 53.1395 162.204 54.2545 162.204 55.6668C162.204 57.042 163.308 58.1941 164.632 58.1941C165.515 58.1941 166.288 57.7109 166.729 56.9305H168.385L168.312 57.0791C167.76 58.5658 166.325 59.5692 164.632 59.5692C162.388 59.6064 160.658 57.9339 160.658 55.704Z" fill="#66513F"/>
<path fill-rule="evenodd" clip-rule="evenodd" d="M160.658 55.704C160.658 53.5112 162.388 51.7644 164.632 51.7644C166.361 51.7644 167.76 52.805 168.312 54.2545L168.385 54.4032H166.729C166.288 53.6227 165.515 53.1395 164.632 53.1395C163.308 53.1395 162.204 54.2545 162.204 55.6668C162.204 57.042 163.308 58.1941 164.632 58.1941C165.515 58.1941 166.288 57.7109 166.729 56.9305H168.385L168.312 57.0791C167.76 58.5658 166.325 59.5692 164.632 59.5692C162.388 59.6064 160.658 57.9339 160.658 55.704Z" fill="#66513F"/>
<path fill-rule="evenodd" clip-rule="evenodd" d="M176.038 55.1827H178.798V56.4463H176.038V58.0816H179.681V59.4196H174.53V51.9492H179.681V53.2872H176.038V55.1827Z" fill="#66513F"/>
<path fill-rule="evenodd" clip-rule="evenodd" d="M176.038 55.1827H178.798V56.4463H176.038V58.0816H179.681V59.4196H174.53V51.9492H179.681V53.2872H176.038V55.1827Z" fill="#66513F"/>
</g>
<defs>
<clipPath id="clip0_2702_121794">
<rect width="234.977" height="46.8" fill="white" transform="translate(0 15.6001)"/>
</clipPath>
</defs>
</svg>
